<svg xmlns="http://www.w3.org/2000/svg" viewBox="0 0 416.2 397.44"><defs><style>.cls-1{isolation:isolate;}.cls-2{fill:#9cd8e5;}.cls-3{fill:#43bc2a;}.cls-4{mix-blend-mode:color-dodge;}.cls-5{opacity:0.6;}.cls-6{fill:#42585c;}</style></defs><title>earth</title><g class="cls-1"><g id="Layer_2" data-name="Layer 2"><circle class="cls-2" cx="204.22" cy="198.72" r="198.72"/><path class="cls-3" d="M351.72,117.67c2,1.1,3.94,2.39,6.05,3.32,2.28,1,1.94,0,1.76-.47l.47.64a.84.84,0,0,1,.73-.85l0-.11c-.22-1.32-.22-1.32.7-2.4-.15.84.14,1.7-.06,2.54a2.76,2.76,0,0,0-.38.11l0,0c.29,1.23.26,1.35.15,1.75a.61.61,0,0,1-.35-.07l0,0c.62.81,1.65,1,2.4,1.65a5.07,5.07,0,0,1-3.43,4.12c3.54,3,6.13,8,9.73,15a2.38,2.38,0,0,1-.3-.75s3.32,4.69,3.29,7.2l-.13.12c-1.08-.62-.93-2-1.73-2.8l-.13.19a10.3,10.3,0,0,1,.41,1.2c-.31-.29-.31-.29-.55-.28,0,.69.55,1.31.29,2-.36-.08-1.21-.78-.77-1.35a1.45,1.45,0,0,0-.35-.22c-.19.25-.32.42.2,1.69a2.72,2.72,0,0,0-1.05-.1h-.18a2.25,2.25,0,0,1-1.08-.19,7.44,7.44,0,0,1,0,2.79h0c-.35,1.58-1.2.38-1.47,0s-.44-.68-.82-1.31l.25,1.31.06.32q.2,1.13.39,2.26c-.71-.53-1-.61-1.23-.34a2.35,2.35,0,0,0-.12,1,4.23,4.23,0,0,1-.12,1.42,6.84,6.84,0,0,0-3.51-2.42c1.11-.06,1.58-.74,2.2-2.22.55-1.33.77-1.82,1.45-2.3-1.54-1.9-6.31-.05-7,1.75a3,3,0,0,1,1,.55c2.31,1.91,3.71,5.69,4,7.11.39,2-.48,1.67-.71,1.49-1.79-1.37-2.63-3.5-4.07-5.16-.08-.1-.08-.1-.14-.1s-.06.11-.1.59a3.34,3.34,0,0,0-1-1.48,2.06,2.06,0,0,1-.63-2.46c.47-1.51,3.08-8.87,7.88-6.11-2.78-5.39-1.57-5.41-.84-5.42,1.44,0,1.46-6.67-3.87-11.72a15.94,15.94,0,0,1,2.05,1.33,18.82,18.82,0,0,0-1.46-1.92s0,0,0,.18-.28.28-1,0c-.06,0-5.73-2.88-2.48-4.64a2.44,2.44,0,0,1-1.07-.81c-1-1.57-1.56-3.36-2.53-4.94ZM148.26,52.27a10.55,10.55,0,0,0,2.68-1.15c1.82-.92,2.07-1,2.4-.94.07.16,0,.54-1.37,1.28.29.16.7.13,1.82-.1a9.83,9.83,0,0,1,1.4-.24c.16-.55.2-.69,0-1s-.87-.5-1.29-.79a35.38,35.38,0,0,0,4.91-.54c2.09-.35,1.43-1.48,1.41-1.49a2.35,2.35,0,0,0-1.14-.15,14.26,14.26,0,0,0-4.63,1.06l0,.07a5.4,5.4,0,0,0-.89.11c-.13,0-.14.23-.29.24a1.55,1.55,0,0,0,.6.12l-.4.17c-.55-.27-1.07-.08-1.8.66,0-.32-.52-.57-.24-.93a2.23,2.23,0,0,1-1.62.21.42.42,0,0,0-.28,0c-.32.2-.41.62-.77.78.06-.18.06-.18,0-.29-.27,0-.65.6-.54.76s.29,0,.47-.35c.81.24,1.67-.13,2.47.21-3.7,1.42-3.7,1.42-3.86,1.68C147.4,52,148.26,52.27,148.26,52.27ZM100.93,70c1.18-.74,6.56-4.42,6.61-4.45l-.18.19c.6-.08.74-.1,2.54-1.12h0c1.75-1.11,4.22-1,5.35-3.15a7.29,7.29,0,0,0-1.38.37c.89-.51,1.76-1.05,2.67-1.53-.34.36-.74.66-1.1,1a8.87,8.87,0,0,0,2.63-1.43,4.94,4.94,0,0,0-.55.27c.54-.32,1.1-.61,1.61-1l-.55.29a20.93,20.93,0,0,1,2.38-2.2.91.91,0,0,0,1.19-.52l.07.25c.85.27,1.28-.54,1.94-.76-.37,0-.37,0-1,.33a5.72,5.72,0,0,1,2.78-1.2c1.53-.5,2.51-1.86,3.92-2.55l-.26.05,0-.3c.94-.56,2.16-.36,3-1.13l-.25,0a3.88,3.88,0,0,0,1-.51c-.21,0-.21,0-1,.24,3.28-1.73,6.9-2.59,10.29-4l.76-.33c-1.28-.34-1.28-.34-5.5,1.18,1.28-1.94,4.63-.26,5.4-3.09a1.91,1.91,0,0,0-.63-.12,13.66,13.66,0,0,0-2.7.68l-.2.1.1,0,0,0-.15.07,0,0,0,0h0l.24-.13a8.2,8.2,0,0,0-3,1.18,4.15,4.15,0,0,1,.82-.56c-.4.15-.76.37-1.15.53l.24-.14-.64.3.65-.34c-.46.22-1,.51-1.6.81a198.58,198.58,0,0,0-26,16.16q-6.95,5.09-13.41,10.77c1.95-1.67,5.63-4.77,6.73-5.47C102,69.13,101.47,69.52,100.93,70Zm250.94,45.55c-.56-.86-1.09-1.43-3.72-3.8-2.36-2.13-2.81-2.61-3-3.2l.08-.17c.35-.07.54-.11,1.82.3a5.54,5.54,0,0,0-2.18-2.85c-2.28-1.85-5.17-2.66-7.52-4.39s-4.24-4.22-6.64-6a5.29,5.29,0,0,0-2.92-1.25,1.91,1.91,0,0,0-.57.13c.73.86,1.89,1.19,2.58,2.11h0c3.65,2.33,11.69,10.78,15.55,14.84a49.83,49.83,0,0,0,4.94,4.91,10.4,10.4,0,0,1-1.4-2.32c.27.07.27.07,1.15.68S351.68,115.62,351.88,115.51ZM172.71,60.35c.05.13.1.24.61.4a1.91,1.91,0,0,0,.29-.33,1.39,1.39,0,0,0-.19-.24,1,1,0,0,1,.2-.27c1.29,2,2.79,2.36,4.59,1.13-.46-.93-1.23-1.67-1.64-2.64a4.19,4.19,0,0,0,2.84-2.51c.7.32,1.52-.16,3.52-1.34s4.66-1,6.93-1.66c.28-.09.64-.25.91-.35a26.1,26.1,0,0,0-4.64-.34,7.6,7.6,0,0,0-2,.3c-.46.14-.78.54-1.23.7-1.6.55-3.29.77-4.87,1.39.27.38.14.52-1,1.06,0,0-5,3.18-4.93,3.86.39.23.89.18,1.26.47C172.91,60.12,172.82,60.15,172.71,60.35ZM351.06,149l.08.1a.75.75,0,0,0-.08-.11ZM87.52,96.56c-1.48,1-1.48,1-4.22,4.07,0,0-.26.86.48.86a3.18,3.18,0,0,0,1.4-.56c-.29.23-.45.35-.66.5,3.1-1.56,3.73-.84,3.93,0,.4-1.33,1.78-1.72,2.57-2.68,1-1.23.09-1.14-.41-1.09a1,1,0,0,1-.41,0c.59-.69,1.47-1.73,1.28-2.17.75.28,2-5.08,1.92-5.15a.88.88,0,0,0-.17-.19c1.74-.74,4.6-3.22,4.7-4.09-.23-.26-.6-.1-2.13.58A21.15,21.15,0,0,0,99,84.06l-.66.62a11.38,11.38,0,0,1-4.09,2.15,4.81,4.81,0,0,0,.32-.58l-.09,0a8.46,8.46,0,0,0,1.84-1.75c-.36,0-.58.2-1.33.86-1.1.93-1.1.93-1.12,1a7.63,7.63,0,0,0-1.23,1.29c.42-.4.81-.84,1.22-1.26l0,.1.07.06a.71.71,0,0,0,.27-.1A7.45,7.45,0,0,0,93,87.85c.21.08.3-.07.46-.38l0,.09c.14,0,.22,0,.72-.34,0,0-2.95,2.5-3.12,2.67a23.27,23.27,0,0,0,2.3-1.44A14.42,14.42,0,0,1,91.67,90l.32-.29a6.92,6.92,0,0,0-1.91,1.61,10.51,10.51,0,0,0,.89-.68,4.29,4.29,0,0,0-.9,1.2c.11,0,.34,0,1.81-1.41-1.17,1.29-1.38,1.56-1.42,2,.17.17.17.17.9.2a5.74,5.74,0,0,0-1.67,1.93l.07.07.18-.06A11.19,11.19,0,0,1,87.52,96.56ZM362,113.71a3.5,3.5,0,0,0-.39-1l0-.07v.07a1.5,1.5,0,0,0,0,.69l-.15-.08C361.57,113.45,362,113.92,362,113.71ZM109.06,68.45c-.45.13-.92-.09-1.36.09A5.63,5.63,0,0,0,106,69.73c.4-.41.54-.58.56-.73-.24-.13-1.24.44-2.62,1.48a17.68,17.68,0,0,0,2.63-2.54h-.07a17.41,17.41,0,0,0-1.41,1.17.7.7,0,0,0,.16-.27c-.09,0-.17,0-1.26,1a.48.48,0,0,0,0-.1c-.08,0-.13,0-.84.51h.11c0,.1,0,.21,0,.31l.06,0-.33.23A.3.3,0,0,0,103,71l0,0s-1.64.63-1.61,1.08c.08,0,.09,0,.23,0-2.48,1.81-1.4,2.09-1.39,2.09a8.58,8.58,0,0,0,3.95-1.5c.35-.21.8-.51,1.13-.76A11.87,11.87,0,0,1,107,70.53l-.09-.05C107,70.31,107.12,70,109.06,68.45Zm242.17,80.72h0l-.08-.1ZM94.83,75l0,0-.13.12,1.15-1Zm114.6-26.24,0,0a11.77,11.77,0,0,1,2.64-.38c-.92.1-1.12.34-1.3.66,1.37.46,2.58,1.33,4,1.6a2.86,2.86,0,0,0,2.27-.45,3,3,0,0,0,.56-.53l0,0c-.07-.06-.07-.06-.45-.19s-.43-.32,0-.63a5,5,0,0,1-2.9-.69,5.94,5.94,0,0,0-3.26-.69c-.59,0-.94,0-1.51.09.08.4.11.81-.67.68a9.4,9.4,0,0,0,1.46.22c-.63,0-1,0-1.54-.06C208.85,48.43,209.14,48.77,209.44,48.73Zm50.21,5.38a.29.29,0,0,1-.2,0c.49.07,1,0,1.47.09,1.69.21,3.32.77,5,.94A3.55,3.55,0,0,0,268,55c-.17-.4-3-.84-3.05-.84h0c-.71-.05-1.4-.27-2.11-.36-1.29.07-2.31-.94-3.59-.91-.37,0-.41.14-.45.25C259,53.51,259.46,53.68,259.64,54.1ZM219,51h0a9.93,9.93,0,0,0,4-.77l.25-.12a6.55,6.55,0,0,0-3.63-1.26c-1.41.08-1.61,1.61-1.16,2A.79.79,0,0,0,219,51Zm55.31,3.79s0-.08,0-.12a7,7,0,0,0-4.21-1.24,5.32,5.32,0,0,0-1.78.4,4.53,4.53,0,0,1,1.5.4C271.48,54.83,273.91,55.67,274.33,54.82ZM358.74,107s0-.09-.06-.2a2.82,2.82,0,0,0-.87-.94h0a3.35,3.35,0,0,0,.52.81C358.44,106.78,358.68,107.06,358.74,107Zm1.67,3.21a.06.06,0,0,0,0-.06c0-.08-.18-.16-.32-.19v0C360.13,110.25,360.36,110.24,360.41,110.17Zm1.43,5.2,0-.08a.36.36,0,0,0-.19,0c-.17.06-.23.27-.18.64a.91.91,0,0,0-.05-.13c0,.05,0,.09.52,1.19C362.13,116.8,362.38,116.47,361.84,115.37Zm-.92-4.21c.05,0,.09,0,.09-.11v0c-.13-.13-.28-.29-.35-.28S360.8,111.11,360.92,111.16Zm-181.44-63c.08.05,1,.25,1,.25a2.24,2.24,0,0,0,.69,0c0-.12,0-.15-.1-.24l.26-.06c.89.36.89.36,2.69-.41.21.62.21.62,3.4-.47l-.13.23c-.22.2-.23.23-.26.3a1.67,1.67,0,0,0,.58-.1l.1-.2,0-.05c.07-.25.06-.28,0-.37-.38-.17-.49-.19-1.43-.09l.44-.38c-.63,0-1.2.31-1.82.34,0,0,.05.29.64.25-.36.13-.75.2-1.12.31h0a11.5,11.5,0,0,0-1.92.37l.05.16a3.46,3.46,0,0,0-.69,0,10.58,10.58,0,0,0,1-.37,6.13,6.13,0,0,0-1.5-.22,5.69,5.69,0,0,0,1.11-.28c.41.1,1.35.34,1.46-.05a.22.22,0,0,0-.1-.1,5.8,5.8,0,0,1-.81-.14c-.68-.31-.77-.29-.85-.28s0,.07.07.35a11.2,11.2,0,0,1-2.7.5l-.18.09c0,.12,0,.13,0,.2s-.1.06-.38-.05a.59.59,0,0,0,0,.25h-.07a3.56,3.56,0,0,0-1.23-.08,1.59,1.59,0,0,0,0,.47A10.06,10.06,0,0,1,179.49,48.15ZM359.34,108a1,1,0,0,0-.18-.23h0c-.08,0,0,.2.24.65A.41.41,0,0,0,359.34,108ZM172.84,47.87a8.9,8.9,0,0,1,2-.1c-.53.09-.53.09-.59.13a.11.11,0,0,0,0,.07,4,4,0,0,1-.88.12c.18.42.74.45,2.12.12l-.32.12a.77.77,0,0,0,.39,0c-.12.15-.35.41.24.35a7.05,7.05,0,0,0,1-.24l.11,0a2,2,0,0,0-1.3-.1,1.61,1.61,0,0,0,.52-.22l-.17,0,1.29-.33c0-.28-.06-.76-1.54-.73a11.25,11.25,0,0,0-3.39.78,1.46,1.46,0,0,0,.44.05ZM343,382.29c-.66.36-1.3.75-2,1.11,2-1.37,2-1.37,2.06-1.59l-.53.13c-3.56,2-6.79,4.48-10.53,6.13a60.29,60.29,0,0,0-6.69,3.12c-2.85,1.61-3.14,2-3.19,2.26,1.3.51,15.92-7.77,19.81-10.45Zm-1.87,1.44c.94-.06,9.18-5.61,12-7.92l.13-.11c-.63.2-1,.78-1.61,1,.19-.28.19-.28,3.65-3.27-.53.41-1.07.81-1.59,1.23l.73-.68C351,376.89,341.24,383.66,341.13,383.73Zm18.5-14.66c-1.64,1.36-3.12,2.89-4.72,4.31.21-.12.38-.29.58-.42a2.18,2.18,0,0,1-.21.24c1.58-1.48,3.14-3,4.77-4.41Zm-25.5-298,0,0,0,0Zm-.08,0,0,0,0,0ZM80.51,101c.5-.21,3.18-1.49,7.35-6.59.43-.52,1.73-2.12.84-2.09l-.19,0c-1.64.53-2.75,1.94-4.3,2.61a2.46,2.46,0,0,1-1.16,1.44c.3.35-.26,1-1.72,2.46C80.56,99.59,78.2,101.92,80.51,101Zm248.18,270.5,0,0-.11.09Zm40.85-24.77.31-.38h0Zm-14.25,26.49-.88.83A10,10,0,0,0,355.28,373.19Zm-30,9.35c-.47,0-.95-.08-1.42-.08a5.93,5.93,0,0,0-3.2,1.16c-2,1.27-3.6,3-5.45,4.39,2.24-.39,2.51-.57,5.09-2.3s4.39-2.94,4.85-3.13ZM156.52,173.66c.59.09.73,0,.77,0s-.18-.2-.41-.2A.4.4,0,0,0,156.52,173.66ZM108.66,142l0,0h0l0,0ZM80.08,130.32v.07a13.3,13.3,0,0,1-.51,1.66c-.65,1.92-1.74,5.13-.81,4.54s2.38-3.17,3.12-4.79c.92-2,.38-2,.2-2a4.31,4.31,0,0,0-1.31.58C80.11,130.79,80.1,130.76,80.08,130.32Zm-22,6.22.06-.08h0A.43.43,0,0,0,58,136.54Zm23.9-7.33a23.48,23.48,0,0,0,2.1-3.56c.32-.66.55-1.22.63-1.42l-.2.09a8.39,8.39,0,0,0-2.36,3.21h0C81.71,128.4,81.67,128.8,81.94,129.21Zm272.29,103a4.62,4.62,0,0,0-.72-2.87l-.12.24c-.35.8-.92,2.19-.72,2.49.12,0,.19-.07.57-.59-1.67,2.82-3.49,5.7-3.66,5.95h0l-.23.34a13.07,13.07,0,0,0-1.27,2.64C350.49,239.13,354,235.57,354.22,232.21Zm11.22,32.5a3.55,3.55,0,0,0,0-1.25l-1.08.23c-2.87.58-5.8.75-8.65,1.44a2.83,2.83,0,0,0-1.74,1.08,5.18,5.18,0,0,0-.47.89c-.63,1.42-.89,3-1.38,4.42-.93,2.79-3.1,4.94-3.94,7.78s-.16,5.81-.63,8.68a3.56,3.56,0,0,1,2.48,0c0-.08,1.58-7.89,2.88-9.17.59.84.68,1,.36,3.55-.45,3.63,1.5,2.95,1.9,2.77a5.86,5.86,0,0,0-.49,2.9l.22.13c1.15-.55,2.13-3.49,2.09-4.59a2.68,2.68,0,0,0-1.11.66c.47-3-.82-5.78-.9-8.7,1.84,2.34,2.88-3.19,5.09-3.75h0c-2.4-.44-4.84,1-7.22-.17-.95-.45-.54-1.2,1.39-2.59,2.11-1.51,3.42-1.35,6-1,2.28.29,2.46.12,3.41-.81-.11.15-.26.35-.38.5C365.27,265.36,365.27,265.36,365.44,264.71ZM369.71,279c-1.06.06-2.6.65-1.34,1.76a4.18,4.18,0,0,0,.52.37c-.07.05-.08.06-.1.1l0,0a.21.21,0,0,0,.11-.1c1.84,1,3.72,1.1,4.28.2a1,1,0,0,0-.25-1.27,2.23,2.23,0,0,0,.34.68A4.16,4.16,0,0,0,369.71,279Zm-10.35-51.54h0s0,0,0,0S359.34,227.48,359.36,227.48Zm.88,44.31h0a.21.21,0,0,0-.14-.06ZM359,232.55c.45,1,2.29-.66,2.3-.67a1.47,1.47,0,0,0,.53-.9c0-.44-.13-.64-.66-1.23a13.7,13.7,0,0,1-1.62-2c-.07,0-.12,0-.23-.22,0,0,0,0,0,.06a10.91,10.91,0,0,1-.14,1.12C359,229.87,358.73,231.88,359,232.55Zm-5.9,64,.94.27L354,297c-.31.08-.72.17-1,.23.18.2.18.2.85.46l.09-.07c.66-.18,1.27-.51,1.93-.71l-.14.32a2.3,2.3,0,0,0,.8-.23c.25-.18.27-.52.5-.71a.84.84,0,0,1,.16-.08l-.14-.05h0c-.29,0-.57.13-.86,0a5,5,0,0,0-1.31.25c-.73-.83-1.79,0-1.8,0a16.46,16.46,0,0,0-6.36,0c-1,.19-1.85.83-2.87,1a9.17,9.17,0,0,1-2.18-.25,1.06,1.06,0,0,0,.61.5c-.63.46-.89.11-1.38-.53a4.18,4.18,0,0,0-1.92.3c-.36-1.12-.93-1.39-1.19-1.37-1,.33-.34,1.22.71,2.57l.07,0c1.7.47,3.39-.32,5.09,0-.51-1.27,5.92-.56,6-.54l-.1.16C350.73,297.59,351.86,296.88,353.13,296.53Zm-31.84-1.79h.06a37.72,37.72,0,0,1-9.17-3c1.79-.55,3.11-2,4.83-2.64,2.88-.42,4.64,2.55,7.41,2.45,2.39-.09,4.64-1.19,7.08-.94.17,0,.39,0,.56.07,1.63.33,1.83,1.12,2,1.82a3.31,3.31,0,0,1-3.31.61c.7,1.12.82,1.32,3,1.65,3.31.51,2.95,1.79,2.76,2.17a1.22,1.22,0,0,1-.15.22c-.42.47-2.58,1.33-2.57-.81-.4,1.5-3.45.73-12.51-1.56Zm9.37-1.74h0Zm-9.13,1.74a2.63,2.63,0,0,0,.42,0h0a2.18,2.18,0,0,0-.63,0S321.36,294.68,321.53,294.74Zm40,1.63c.17-.37-.19-.33-.6-.28a15.11,15.11,0,0,0-9.14,7.13,18.6,18.6,0,0,0,3.29-1.56h0C357.12,300.5,361,297.42,361.48,296.37Zm-20.65-14.75s1.93-.61.37,1.3a10.15,10.15,0,0,0,1.33-1.9c.9-1.78.68-3.87,1.53-5.67,1-2.19,3-3.75,4-6a5.63,5.63,0,0,0,.54-3.38c1.26,1.57,1.79.66,2,.2.43-1.15.3-3.46-2.77-7.9a3,3,0,0,0,.69.39c0-.1,0-.1-1-1.71.42,0,1.75,0,1.38-1.38l.11.17.18-.08a6.27,6.27,0,0,0-.29-1.35c1,.95,1.71-.27,1.65-1a2.52,2.52,0,0,0-.24-.74h0l0,0c.34-.38,3.24-3.69,1.61-3.73a6.63,6.63,0,0,0-2.13.7c.41-.28.41-.28.55-.51-.33-.15-.33-.15-1.29-.05,1-2.28-.71-3.38-1.14-3.35a1,1,0,0,0-.6.45c0-.06,0-.14,0-.2s-3.08.17-4.28,7.78a1.6,1.6,0,0,0-.58-1.28,11.39,11.39,0,0,0-1.1,3c-1-.24-.64-1.66-1.64-1.91-1.16,3.21-6.39,7.6-7.12,6.47a1.1,1.1,0,0,1-.07-.18,11.53,11.53,0,0,0-1,4.53c-1-.81-3.35-.42-3.21-2.26-1.81,1.78-2.55,2.52-2.28,6.2,0,.12,1.64,12.05,3.67,12.18.62,0,1.19-1,1.47-1.44.35,2,4.72,2.23,6,1.56C336.53,283.32,339.52,282.22,340.84,281.62Zm-7-90.74-.15.22a1,1,0,0,0,.15-.22h0ZM349.71,184c.84-1.51,1.12-2.09,1-2.71l-.07-.14a3,3,0,0,1,.42,1.51,15.9,15.9,0,0,1-.47,3.69c-.47,2.27-.69,3.51-.31,4.68a4.8,4.8,0,0,0-1.28-1.27l.1.06c-.2-.17-.2-.17-.25-.24a1.47,1.47,0,0,1,.23.13C347.79,188.09,348.26,186.57,349.71,184Zm-.23,6.12-.34-.33v0l.25.21Zm0-.12-.12-.1h0Zm1.38,1.83,0,0c-.22-.28-.43-.56-.66-.83v0A1.7,1.7,0,0,0,350.88,191.79ZM312.6,291.26h0c-.13-.16-.21-.23-.25-.23s0,0,0,0S312.46,291.39,312.6,291.26Zm-22.45-41.1h0Zm23.8,14.5Zm-23.56-52.92-.4-.64c-3.44,2.22-3.44,2.22-4.41.95-1.37-1.8-1.74-4.53-1.92-5.85-.77-5.64-5.4-9-8.09-13.45-.32-.53-.7-1.25-1-1.78s-.81-1.15-1.16-1.65c-.48,0-1.12.1-1.6.13-.3,2.34-.3,2.34-1.23,3.4a10.89,10.89,0,0,1-.8-1.36,3.81,3.81,0,0,1-1,1.05,4.76,4.76,0,0,0-1.52-.18l-.51.66-.51-.52-.61.39a2.55,2.55,0,0,1-.59-1.34c-3.61,8.34-13.21,11.61-16.87,19.9-3.53,8-1.17,17.22-5.16,25.13-.59,1.17-1.36,2.92-2.48,3.6-4.59,2.76-25.42-34.83-18.91-47.32l-.69-.49a6.45,6.45,0,0,0-.33-1.43l-.72-.2a5.8,5.8,0,0,1,.42.9c.58,2.31-2.48,4.67-4.29,4.4-3.33-.5-2.73-4.45-5.08-5.8,2.32-.26,2.61-1,2.89-1.65-2,.1-3.71-.24-6.45-2.29-4.16-3.52-4.74-5.68-4.92-6.39-7.52-4-16.08,2.61-23.52-2.29-.73-.48-1.68-1.16-2.44-1.61-3.5-2.07-7.59.2-11.14-1.51-4.47-2.15-4-8.62-9-10.3a5.06,5.06,0,0,0-1-.1,15,15,0,0,1-2.86,2.47h0c1.76.43,2,.83,2.76,4.3l5.34,11.45c2.92,3.25,13.63,3,14.13-5.78,2,2.17.38,5.33,2,7.59s5.13,1.72,6.65,4.21a4.75,4.75,0,0,1,.38,3c-.58,2.91-4.67,10.78-16,19.73-.22.17-22.22,17.48-27.09,12.8l-18.22-47.8c-.21-.55-.49-1.27-.68-1.82a14.89,14.89,0,0,1-.58-7.92c-2.25,3-2.21,4-2.12,6.11-2.2-3-2.91-4.73-3.17-7.65-2.26,3.9-2.48,6.83,2,14.82,3.4,6,3.4,6,8.5,24.34,2.17,7.8,4.48,12,8.23,14.87,1.77,1.37,5.05,3.91,5.77,5.63.93,2.23-.06,3-1.88,4.47,9.29,3.5,9.29,3.5,11.6,2.81,12.1-3.62,12.1-3.62,12.21-3s2.12,13.19-17.09,37.29c-19,23.86-4.92,37.15-4.76,37.26l-.11,1c.32,4.66,3.36,8.58,3.61,13.26.31,5.86-6.34,6.92-7.92,11.47-2,5.87,5.21,9.36,3.85,15.05a7.59,7.59,0,0,1-3.21,4.13c2.8,2.66,5.45,5.17,1.94,14.47-3.4,9-11.28,6.75-11.35,6.72-1.54-.69-19.82-20.13-20.59-21C101,342.35,89,324.26,89,324.13c-3.23-6.22-2.37-13.51-5.17-19.84l-.29-.57c-.07-.12-7.19-12-5.73-15-4.65-2.29-14-13.64-10.38-20-4-4.35.19-11.35-5-15.33l-.66.64-.87-.3a2.62,2.62,0,0,1-1.46.83c-7.17-7.19-7.17-7.19-9.2-5.68-9.62,7.14-10.8,4.38-12.75-.18a130.93,130.93,0,0,1-5.82-31.56c-.49-7.48,2.52-14.59,2.29-22l-.14.92c1.1-15.74,18-43.37,18.17-43.62,2.59-3.77,3.77-5.22,4.51-5.53,1-.44,1.73.47,2.62.65s1.13,0,4.31-2.15c2.9-2,4-2.59,5.76-3,.74-.19.74-.19,8.24-.73,1.68,0,2.79-.08,1.21,3.44-1.1,2.45-3,4.54-3.33,7.35.73,5.14,13,14.81,15.28,7.43,1.06-3.41,2.34-4.14,3.24-4.15a7.28,7.28,0,0,1,1.28,0c3.7.7,5.94,4.14,9.51,5.08s6.51-2,10-1.19a8.63,8.63,0,0,0,1,1.64c5.11-.62,7.33-5.17,9.11-8.83,3.41-7.34,2.23-8.84,1.78-9.13,0,0-8.36.24-10.15.35a15.81,15.81,0,0,1-6.29-.68l.39-.72a7.26,7.26,0,0,0-1.8-.25c.25-1.38.09-2.83.75-4.13-2.22-2.38.94-4.54.64-6.88-1.54-1-2.87-1.45-4.77-.23a4.08,4.08,0,0,0,.32,1.83,8.7,8.7,0,0,0-1.66.22l-.14.85a10.16,10.16,0,0,0-1-1.79c-.6,2.58,1.33,4.84.95,7.39l-.5-.72a2.39,2.39,0,0,1-.58,1.44,2.35,2.35,0,0,0-1.51-.43l.56.75c-.39.35-.93.8-1.35,1.12,0,.61-.12,1.41-.18,2l-.75.48c-3.3-2.21-1.3-4.76-.65-5.6a1.87,1.87,0,0,1-2-1.69,15.47,15.47,0,0,1,.25-4.84c.68-3.07-1.48-5.48-1.91-8.29-.11-.73-.62-1.63-.7-2.37a3.73,3.73,0,0,1,.57-2.14l-.39-.8-.78.28-.77-.4c-2.45,1.76-3.36,2.42-3,6s4,5.64,4.54,9.15c-1.16.44-2.22-.32-3.36-.25l0,0s-.34,4.55-2.42,7c-1.73-.21-2.86,1.51-4.56,1.41-1.38-2.41,3.14-2.39,4.3-4,3.63-5.07-1.73-14.23-1.78-14.32-1.83-2.9-4.86,0-7.28,0L79,123c-.05,0-7.91,6.33-12,13.45-2.75,4.76-5.62,7.52-8.77,8.43-1.15-.83-1-2.31-1.71-3.36l-.83.22c1.62-3.68,1.62-3.68,2.44-5.24h0l-.18.22c6.34-13.43,6.34-13.43,11.71-13.21,2.81.11,9.85-8.49,7.14-13.26a10.38,10.38,0,0,1,4.16-1.67c1.6-4,18.69-13.5,18.84-13.55l.59.56c1.88-2,3-4.62,4.82-6.65.31-.31.74-.7,1.07-1l.09,0a4.74,4.74,0,0,1,2.87-1.4c-1.43,1.53-2.43,3.46-4.24,4.64l.93-.08c-.91,1.41-.91,1.41-2.05,1.51l.38-.89c-.94,1.52-.88,1.64-.38,2.54,0,0,1.5-.18,3.56-.33l-.69.47.44.78c.08,0,7.84-.71,9.49-1.78,2.45-3.65,4.54-6,6.21-7.09a3.86,3.86,0,0,1,1.2,1.16c2.78-.32,2.13-3.35,3.64-4.68,1-.85,1-.85,8.69-1.32l-.28-1-.88-.46-.11-.58c-6.91,1.23-6.91,1.23-8.19.78,2.09-3.18,2.09-3.18,10-9.3-3.22-2.29-4.11.45-4.41,1.35-10.77,4.17-10.23,7.43-10,9C111,91.2,111,91.2,108.22,91.38l.34-1a22.89,22.89,0,0,1-3,2.91L104.8,93c1.46-.54,1.46-.54,1.69-2.28,3.21.62,5.26-5.8,6.14-8.54a16.13,16.13,0,0,1-5.32,3.21l-.68-.47c.15-.88.74-1.62.76-2.54,2-1.83,3.1-4.51,5.72-5.69,1.74-.81,2-.92,3.44-1.64,4.26-2.09,8.06-4.94,12.16-7.29l.09,0a21.53,21.53,0,0,0,2.69-1.84h0l.39-.39a11,11,0,0,1-1.94.31c1.52-.91,3.23-1.4,4.79-2.21l-.54.63c2-.16,3.47-1.59,5.31-2.13,0,.24,0,.57,0,.81,2-.53,2-.53,2.36-.84l.92.15c.75-1,.88-1.18,2.69-1.82l.76.44c-.49.3-1.12.73-1.58,1.07a14.8,14.8,0,0,1,4.12-1.19l-.67.49,1-.3.83.49L148,62c2.7.18,2.7.18,3,.22l.16.8c4.54,1,6.24,1.35,6.72,2.49.64,1.53-2.1,3.4-3.38,3.66-2.44.49-4.26-1.41-6.5-1.69,1.43,5.75,1.43,5.75,3,5.36a6.53,6.53,0,0,0-.65-1.62c3.3-.1,5.77-2.92,9.13-2.81l.52.66a18.72,18.72,0,0,0,1.51-3.79l-.44-.71c2.19-1.14,3.34-.68,3.39,1.36-1.92.08-2.29.14-2.56,1.62,4.5.37,7.67-3.85,12.15-3.54-.45.32-1,.78-1.44,1.13,6.73-.32,7.71-.84,9-1.5a23.45,23.45,0,0,0-2.55-2C190.14,65,190.14,65,190.57,64.86c-1.38-1.45-2-2.8-1.71-4,.39-1.93,2.89-2.08,3.33-4a7.26,7.26,0,0,1,1.71.37h.16l.8.27c1.15,2.48.69,5.37,2,7.81-.69,1.82-.76,2-3.19,3,5.69-.38,5.07-2.6,4.74-3.79,2.42-1.25,3.68,1.26,5.57,1.73h0c-2.62-2.25-6.24-3.27-8.06-6.51,1.25-.82,1.25-.82,1.59-2.13l.69.49a14.13,14.13,0,0,0,.26,2.12c.53.26.53.26,3.61.46-.3-.44-.3-.44-2.53-1.55l.8.19.63-.51-.69-.45a44.46,44.46,0,0,0,6.24,1,4.49,4.49,0,0,0-3.73-2.26h0l.37-.16c2.15-.54,4.45.08,6.56-.8l-.79-.33c-.46-2.22.69-2.2,5.54-2.12a3.21,3.21,0,0,1,1.48-.8,16.26,16.26,0,0,0,4.74.23L220,52.6h.75c.85-1.11.85-1.11,2-1.36,9.75-.21,17.61,7.07,27.35,6.91l.45-.65-.24-.81c4.8,1.2,8.93,4.88,14.33,3.78l-.27-.92c2.43-.79,4.68.45,7,.65l-.55-.12-.59-.51a11.26,11.26,0,0,1,2.44.13l-1.9-.81-.28-.77c9-.75,9.63-.25,12,1.62,4.08,3.27,8.82,1,13.22,1.58,3.88.49,7.79.54,11.67,1a4,4,0,0,1,1.49.61l-.75-.24a22.86,22.86,0,0,0,5.23,1.51c-3.47-1.45-3.47-1.45-3.88-2.29,7.63-.42,26.22,4.69,29.26,8h-.85a22.85,22.85,0,0,1,3.88,2.33c-4.44,2.33-6.91-2.27-10.48-3,1.8,1.2,1.8,1.2,2.43,1.67l-.43.65c3.09,1.64,6.43,2.79,9.3,4.84a7.18,7.18,0,0,0-2.68-.59l.59,1.08-.55.68a8.7,8.7,0,0,1,2.24,2.89l-.37.7c-3.82-.84-4.75-.61-5.57-.4.32,2,5.6,5,5.66,5.06s6.09,3.64,9.19,7.24l-.1,1a29.31,29.31,0,0,0,2.93,3.07h0l-.36.14c.49,1.87,1.88,3.23,2.77,4.86a7.43,7.43,0,0,1,.52,2l-.63-.68,0,0c-.12-.27.06-.69.13-1-6.09-6.59-14.2-10.65-20.85-16.54h0l.56-.84c-2.57-7-7.37-9.19-8.73-9.17A30.37,30.37,0,0,0,330.43,78l-.8,0a11.85,11.85,0,0,0,.73,1.94c-4.12-2.79-4.56-2.9-6.43-3.34l-.52.58c.19,1.43.19,1.43,5.53,5.83-1.83,2.55-3.92.7-4.32.31l.63-.49h0l-.11-.06a13.55,13.55,0,0,0-1.55-.13h-.81a16.72,16.72,0,0,1-1.86-.18l.09.08c-2.49.66-5.18-2.11-7.55.46-1.89,2.05-2,12,6.81,12.16-2.57-2.32-2.57-2.32-2.88-3.13,0,0,3.44,2.14,4.05,3.9a7.77,7.77,0,0,1,1.36-.61,3.76,3.76,0,0,1-1-1.37,9.48,9.48,0,0,1,7.22,3.22l-.78-.11c13.53,8,17,23.28,14.84,27.83l-.91.32a4.88,4.88,0,0,1-2.1-1.69l-.52.58-.41-.66a4.71,4.71,0,0,1,.37,2l-.83-.13c3.45,3,.25,7.49,2.52,10.72,2,2.85,5.95,3.52,7.59,6.77.65,1.29.65,1.29,1.62,5.79a7.08,7.08,0,0,0-1.48.4c0,.22,0,.52,0,.75-4.47,1.71-6.26-6.77-6.12-7.58l.62.49c-.21-1.31-.35-1.69-2.39-2.74l.09-.07-.2,0,.09.07c-1.48-.51-3.06-.63-4.51-1.26a2.54,2.54,0,0,1,.16-1.64c-1.81-.86-2.58-3.29-5-3.28-2.2,0-1.09,3.36-3.29,3.32a3.43,3.43,0,0,1-.78-.23c-.23-1.84-.46-1.91-1.39-2.2.15-.27.46-.59.51-.89.09-.65-1-3.56-3-2.73-.07,0-5.86,4-3.08,7.1,3.42,3.8,8.5,1.22,12.39,3.23-.38,2-2.65,3.25-2.37,5.57.11.89.2,1.6,3.73,5.5a61.24,61.24,0,0,0,7.84,7.27l-.6.41c-1.21-.55-2-1.82-3.33-2.13a6.44,6.44,0,0,1,3.57,5.33l-.48.53c3.37.72,3.37.72,4,3.2a2.52,2.52,0,0,1-.45.6c.86,1.84.83,2,.67,3.25l-.77.11c-.37,1.13-.85,6.44.12,8.65h0l.24-.24c-.47,3-.54,3.42-2.79,5.64-2.46,2.42-5.94,3.25-8.52,5.48a2.58,2.58,0,0,0-1.41-1.86c.83,1.69,1,2-1,4.56,0,0-4.71-3.7-5.72,4.6,1.69,1.4,2.41,2.71,1.62,5.94-.77,2.42-3.15,3-4.5,3.05.27-.49.62-1.16.88-1.66.3-6.56.3-6.56,1.35-7.22,0-.94,0-3.15-1.42-3.8-.77-.35-9.4.41-8.82,5.28,1.09,9.08,10.88,13.46,12.14,22.45.45,3.2-.85,14.21-5.63,10.67-.15,2.37-2.35,8.61-5.55,6.92l1.06-1.7c-1.76-7.05-9.63-9.34-12.24-15.73-5.6,3.75-3.82,12.82-3.6,13.85.9,4.18,4.64,6.35,6.83,9.62,3.76,5.6,2.59,12.6,5.22,18.52.12.28.53.47.76.67-5.56,1-7.58-3.52-9.79-13.45-1.85-8.35-2.77-11.06-5.83-8.63-.74-2.81-1-4-.4-9a37.77,37.77,0,0,0-6-25.59C292,211,291.37,211.32,290.39,211.75Zm-136.86-90c.55.25.55.25,1.24,0-1.85,2.84-1.46,4.16,2.08,7,2.22,1.81,2.75,2.45,2.94,3.61-2.49-.38-3.68,4.13-3.5,5.65.3,2.44,2.47,3.62,4.22,4.56.51.27.53.36.58.55h.06l0,.07c2.47,1.48,4.53-1,6.88-.7h0c-.11-8.76-.18-14-3.93-17.72-2.64-2.58-2.73-3.18-2.88-4.17a2.78,2.78,0,0,1,1.53-.75c-.63-1.39-.63-1.39,3.59-2.24-.66-.51-.77-.65-.45-2.1.23-1,.57-2.55-2.59-2.7-3.45-.16-4.68,3.66-7.7,4.29a1.16,1.16,0,0,1-1-.51C154.66,118.41,153.14,119.87,153.53,121.76Zm-23.13-6.37c-.75,1.3.75,1.55,4.77,2.24.35-.92.93-2.45,2-2,0-.5,0-.58-.57-.85s-.53-.34-.51-.87A3.89,3.89,0,0,0,139,113l.35-.26c-2-1-5.63.24-8.21,2,.15-.14.15-.14.19-.21a7.06,7.06,0,0,0-.8.66l.27-.24-.28.25,0,0-.08.06Zm4.49,15.21a6.1,6.1,0,0,0,5.55-2.46c1.73-2.41-1.61-6.53-5.83-9.12-3-1.85-6,1.54-9.06,0-.16-.65-.16-.65,2.53-3-2.22-1.21-3.72-1.88-5.77-.86l-.27-.31.15.27.08.06c-1.93,1-3.19,3.25-4.66,5.82a13,13,0,0,1-3.9,4.78,3.33,3.33,0,0,1,1.33,1.59c.42.82,1,2.07,1.72,2.22,3.76.86,6.37-3.21,10.13-2.37C129.76,127.85,131.86,130.32,134.89,130.59ZM250.21,239.25c-.11,0-.23.13-.49.41.25.55.32.6.34.55a.83.83,0,0,0,0-.25l.09,0,.06-.06a.74.74,0,0,0,.15-.38C250.35,239.41,250.35,239.24,250.21,239.25ZM314,264.66h0ZM404.36,284l0,0c.92-3.18.68-6.27-.16-6.18-.2.07-.34.19-.59.55a4.08,4.08,0,0,1,.07.74.2.2,0,0,0-.11-.07.57.57,0,0,0-.24.39c.1,0,.1,0,.31-.17a36.06,36.06,0,0,1-.13,4c-.07.18-.32.33-.42.49a27.49,27.49,0,0,1-1.52,2.6c-.38.47-.58.41-.74.3-.63-.48-.94-.72-1.9.23-.16.16-.16.16-.53,2.17.11.06,2.87,1.46,5.08-5,0,1,0,1.29.1,1.46l.08,0v.05a2.35,2.35,0,0,0,.61-1l.14-.36,0-.15-.07.05Zm-154.6-44a28.43,28.43,0,0,1-.4,8.1c-1.09,4-3.57.33-3.6.29-1.07-1.86-.59-4.06,0-6.61s.87-4.42,0-5.87a.64.64,0,0,1-.56-.58l.22.14-.11-.14a.94.94,0,0,1,.57-.22c.27,0,1.69.06,3.39,2.16.44.55,1.09,1.58.48,2.4C249.65,239.7,249.63,239.73,249.76,240Zm-2.87-3.82c-.39-.48-.6-.22-.61-.22s-.1.27.24.28a1.47,1.47,0,0,0,.34-.05ZM389,274.91c-3.65.06-4,4.73-7.32,5.24-1.35.21-.58-4-.57-4l-.08.19c.43-3.88.63-5.65-2-5.39a6.19,6.19,0,0,0-3.41,2.38c.21-1.21-.2-1.49-.38-1.61-.22.08-.32.12-.6.58,1.55,2.65,2.89,4.95,5.38,4.24-.92,1.19-2.52,1.09-3.64,1.88h0c1.63,1.39-.42,3.14.44,4.61.32,0,.55.05,1.78-2.38a3.14,3.14,0,0,0,.38,2.52c.65.92,1.84,1,2.61,1.75,1.21,1.14,1.22,1.29,1.5,9-.17-.4-.68-1.61-3.19,3.22,1.28-.57,2.74-.53,4-1.09-1.31,3.73,1.41,3.57,1.64,3.45s2.58-1.95,2.2-2.83l-.18,0h0c1.24-.61,1.24-.61,1.5-.87v-.23l.07.18a4.08,4.08,0,0,0,.79-1.51c.31,1.15,1.54,1.73,1.83,2.9.46,1.86-.54,3.79.27,5.64,1,2.25,2.14,1.16,2.15,1.15a4,4,0,0,0,.56-1.93c.35-2.2-.67-4.33-.36-6.53s1.84-4.14,2.13-6.42a8,8,0,0,0-.1-2.18C396.43,286.68,393.22,274.84,389,274.91Zm-77.2,13.51a5.75,5.75,0,0,1-.27-.77v0h0c.7-.35,1.55-.07,2.23-.51a5,5,0,0,0,1.91-2.16c1.1-3.18.09-6.28-.45-8,2,3.42,2.49,4.23,4.44,3.15a.89.89,0,0,1,.07-1.48c.12.08.32.19.42.11l-.34-.34.11,0-.17-.15h0v0c-3.77-3.63-3.77-3.63-5.17-2.66-1.19-2.14-2.76-4.07-3.64-6.39-.51-1.33-.21-2.84-.87-4.14-.47-.94-1-1.1-1.93-1.43a1.31,1.31,0,0,0-.26,1.06,5.08,5.08,0,0,0-1.4-1.33c.4.16.4.16.7.09.39-1.38-1.59-3-1.61-3-1.58-1.28-3.55-2-5.12-3.26-2-1.66-3.3-4-5.46-5.5a7.34,7.34,0,0,0-4.27-1.55l-.54,0c3,.61,7.77,10.39,13.93,24.89C308.34,285,310.27,289.39,311.78,288.42Zm64.54-10,.09-.06h0Zm8,25.83c-4.66,6-6.5,13.76-12,19.24-3.17,3.17-4-3.23-4-3.3-.12-1.92-.12-1.92,5.58-12.48-.36.37-.36.37-1.42,1.4,0-.69.44-1.28.51-2-.68,1.51-.68,1.51-5.9-1.75-2,3.87-2,3.87-3,4.14-2.19.58-5.22,3.08-6.54,8.22-1-.53-1.14-.56-2.6,0,.2-1.86-1.89-2.36-2.3-3.86-.28.34-5.65,5.83-8.33,6.9h0a6.76,6.76,0,0,1-.77,2.72l-.15-.41c-.42.41-.42.41-.83,1.36a11.09,11.09,0,0,1,.45-3.18c-1.32.82-2.36,1.46-5.09,4.66s-3.56,3.78-5,4.56c-2.37,1.32-5.12,1.56-7.57,2.66-3.08,1.38-5.28,4.42-8.92,4.76a2.3,2.3,0,0,1,.26-1.17c-5.26,2.7-6.83,8.68-7.5,11.24-.35,1.32-.35,1.32-.78,1.76a2.5,2.5,0,0,0-.08-.88c-3.35,3.9-2.15,9.51-5.07,13.57-1.79,2.49-4.73,3.91-6.23,6.67a2.15,2.15,0,0,0-.08.71c1.55,1.27,5.89-.45,9.07-1.71.21-.08,21-7.73,24.87-4.89.07.71.07.71-3.67,7.12,2.82-1.94,5.89-3.51,8.53-5.72-1.72,3.34-5.41,4.15-8.06,6.28,1.11-.15,1.5-.43,4.5-2.59-.11.14-.11.14-3.52,3.09l.05,0,.42.16c-.86,2.61-4.26,3.39-4.58,6.39.42.34.42.34,5.64-1.32a3.15,3.15,0,0,1-1.32.92l.49,0c-.21.58-.21.58-1,1.53A114.73,114.73,0,0,0,368.54,348l-.8.95,1.4-1.71-.3.37.15-.19.09-.1.41-.51-.28.35a26.31,26.31,0,0,0,3.47-6.19c1-2.62,2.22-5.15,3.11-7.81.78-2.34.21-4.93,1.35-7.19,4.55-9,4.55-9,4.67-12.23.22-5.64,1.29-7.3,2.65-9.4v0h0s0,0,0,0Zm-19.87-22.42a1.52,1.52,0,0,0,2-.74,1.1,1.1,0,0,0,.06-.39h0a1.66,1.66,0,0,0-1.78-1.26.9.9,0,0,0-.76.85C363.91,280.66,363.82,281.51,364.45,281.88ZM353,203.93v-.08a.36.36,0,0,1,0,0Zm7,41h0a4.22,4.22,0,0,1-.33.37A2.37,2.37,0,0,0,360,245Zm8.35.32c.11,2,.17,2.05.54,2.37a15.15,15.15,0,0,0,.4-1.83c0-.07,1-7.5-1.6-10.63l0-.06c.28-.15.28-.15.17-2.37-.17.44-.36.88-.52,1.33,0,.18.08.43.12.61-.87-.58-.87-.58-1.09-4.66,1.8.75,1.26-2,.73-3.25-.69-1.63-.9-1.61-2.52-1.4-1.22-4.19-1.22-4.19-1.74-4.27-.28.22-.28.22-.42.76a2.1,2.1,0,0,0-3-1.55,1.32,1.32,0,0,0-.29.77,11.63,11.63,0,0,1-.21-2.2l0,0a3.92,3.92,0,0,0,.06-.91c0-.11,0-.24,0-.35-.16-3.43.93-6.92-.44-10.3-1-2.51-4.47-.86-5.55-3.25L353,204a1,1,0,0,0,.11.27c.41,3-.85,6,.56,9a1.24,1.24,0,0,0-.73.19c-.45,1.73.42,5,2,6.3.59-.33.67-.72.28-1.4.83.54.83.54.45,3.43l-.57.08c-.44,1.13.17,1.82,2.45,4.39,1.34-1.63-.25-3.43-1.32-4.36a4.47,4.47,0,0,1,2.24-.1.8.8,0,0,0,.45,1.15c.25-.11.5-.22.2-1,1.42.48,1.93,2,3.07,2.76a2.27,2.27,0,0,0-.92-1.59c0-.44.13-1.76,1.5-.32a12.77,12.77,0,0,1,1.75,2.64l-.2,0c-.19,1.16-.19,1.16,1.68,3.83-.39.33-.66.42-1,0l.23-.06a1,1,0,0,0-.22-.88c-.19.18-.27.26-.11.8l-.12-.26a4.48,4.48,0,0,0,.06,3.16l-.13,0a9.59,9.59,0,0,0,.66,1.22l1.88,3.36c-.41,1.36-.41,1.36-3.39,4.66l.13-.36c-.42-.73-2.88-.59-3.35,1.06a17.47,17.47,0,0,1-.67,3.07,7.59,7.59,0,0,0,1.31-2.1c.93,1.25,3.37-1,3.39.65,0,1.2-.78,2.31-.4,3.55s1.68,1.58,2.29,2.57C366.63,247.93,368,246.81,368.4,245.28Zm-7.46-8.39c.45,0,1.39-1.51,1.79-2.34,0,0,.23-1.3.28-1.93.16-2-.77-1.86-.78-1.86C361.26,231.51,360.14,236.84,360.94,236.89Zm1.21-9.63a6.76,6.76,0,0,0,.81-2.39v-.1a3.89,3.89,0,0,1,1.27,2.94,2.23,2.23,0,0,1-.15.64c-.57-1.28-1.21-1.45-2.12-.56v0l0,.06a2.18,2.18,0,0,0,0-.29c0-.37,0-.4.07-.43S362.09,227.12,362.15,227.26Zm.15-.06.06,0,0-.14ZM353,203.85v0h0S353,203.85,353,203.85Zm18.36,61.39c-.15.22-.3.43-.46.64.13-1,0-1.94.16-2.91.12-.79.12-.79.45-1.12l-.21.12c-.64.51-1.34,1.45-1.66,4.51,0-.13,0-.13-.09-.18a26.46,26.46,0,0,0,.18,4.42c.27,1.51.63,1.58.88,1.5-.9-3.8,1.58-3.72,1.61-3.72-.33-1.4-.3-2.09.51-4.57C372.26,263.79,371.31,264.91,371.38,265.25ZM250,240.53l.06.1c-.12-.32-.25-.65-.38-1l0,.34C249.85,240.18,249.95,240.35,250,240.53Zm-82.93,76.68-.15-.31,0,.16c-.22-.52-.24-.53-.5-.66-.1.28-.1.28-.16,3.61h0a4.32,4.32,0,0,1-.59-1.33c-.87,2.16-.9,3.22-.24,8.71.82,6.82-.45,20.13-4.37,20.42-1.37.1-4.06-1.86-5-5-.89-3-2-18.56-2-18.66.12-2.11,2.19-2.7,3.21-4.12.31-.43.41-1,.73-1.39a7,7,0,0,1,.6-.65c1.55-1.59,1.75-3.87,2.86-5.68.66-1.08.93-2.4,1.89-3.31,1.2-.34,2.14,2.46,2.71,4.87A16.59,16.59,0,0,0,167.12,317.21Zm-.34-.78a2.25,2.25,0,0,0-.17-.4.7.7,0,0,0,.07.18ZM353.06,204l0-.15,0,.15Z" transform="translate(-22.37 -25)"/><g class="cls-4"><g class="cls-5"><line class="cls-6" x1="292.65" y1="376.14" x2="383.05" y2="237.99"/><polygon class="cls-6" points="383.53 238.22 293.13 376.38 292.16 375.9 382.56 237.75 383.53 238.22"/></g><g class="cls-5"><line class="cls-6" x1="292.65" y1="376.14" x2="383.05" y2="237.99"/><polygon class="cls-6" points="383.53 238.22 293.13 376.38 292.16 375.9 382.56 237.75 383.53 238.22"/></g><g class="cls-5"><line class="cls-6" x1="2.43" y1="142.49" x2="183.89" y2="75.8"/><polygon class="cls-6" points="183.72 75.31 184.05 76.28 2.6 142.98 2.26 142.01 183.72 75.31"/></g><g class="cls-5"><line class="cls-6" x1="2.43" y1="142.49" x2="68.03" y2="321.95"/><polygon class="cls-6" points="2.97 142.29 68.57 321.75 67.49 322.16 1.88 142.71 2.97 142.29"/></g><g class="cls-5"><line class="cls-6" x1="252.02" y1="257.12" x2="292.65" y2="376.14"/><polygon class="cls-6" points="252.56 256.91 293.19 375.94 292.1 376.34 251.47 257.32 252.56 256.91"/></g><g class="cls-5"><line class="cls-6" x1="252.02" y1="257.12" x2="183.89" y2="75.8"/><polygon class="cls-6" points="184.44 75.58 252.56 256.9 251.47 257.33 183.35 76.01 184.44 75.58"/></g><g class="cls-5"><line class="cls-6" x1="252.02" y1="257.12" x2="383.05" y2="237.99"/><polygon class="cls-6" points="383.01 237.47 383.08 238.5 252.05 257.63 251.98 256.6 383.01 237.47"/></g><g class="cls-5"><line class="cls-6" x1="252.02" y1="257.12" x2="383.05" y2="237.99"/><polygon class="cls-6" points="383.01 237.47 383.08 238.5 252.05 257.63 251.98 256.6 383.01 237.47"/></g><g class="cls-5"><line class="cls-6" x1="252.02" y1="257.12" x2="68.03" y2="321.95"/><polygon class="cls-6" points="251.86 256.63 252.18 257.6 68.19 322.44 67.87 321.47 251.86 256.63"/></g><g class="cls-5"><line class="cls-6" x1="99.9" y1="112.87" x2="2.43" y2="142.49"/><polygon class="cls-6" points="99.77 112.38 100.03 113.37 2.56 142.99 2.3 142 99.77 112.38"/></g><g class="cls-5"><line class="cls-6" x1="99.9" y1="112.87" x2="183.89" y2="75.8"/><rect class="cls-6" x="118.36" y="118.83" width="91.81" height="1.02" transform="translate(-56.74 52.29) rotate(-24.05)"/></g><g class="cls-5"><line class="cls-6" x1="99.9" y1="112.87" x2="68.03" y2="321.95"/><polygon class="cls-6" points="100.47 112.89 68.6 321.97 67.46 321.93 99.34 112.85 100.47 112.89"/></g><g class="cls-5"><line class="cls-6" x1="188.84" y1="283.52" x2="99.9" y2="112.87"/><polygon class="cls-6" points="189.36 283.26 188.31 283.78 99.38 113.14 100.42 112.61 189.36 283.26"/></g><g class="cls-5"><line class="cls-6" x1="188.84" y1="283.52" x2="252.02" y2="257.12"/><polygon class="cls-6" points="251.82 256.64 252.21 257.59 189.03 283.99 188.64 283.05 251.82 256.64"/></g><g class="cls-5"><line class="cls-6" x1="188.84" y1="283.52" x2="292.65" y2="376.14"/><polygon class="cls-6" points="293.07 375.75 292.23 376.53 188.41 283.91 189.26 283.13 293.07 375.75"/></g><g class="cls-5"><line class="cls-6" x1="188.84" y1="283.52" x2="183.89" y2="75.8"/><polygon class="cls-6" points="184.46 75.74 189.41 283.45 188.26 283.58 183.32 75.86 184.46 75.74"/></g><g class="cls-5"><line class="cls-6" x1="188.84" y1="283.52" x2="383.05" y2="237.99"/><polygon class="cls-6" points="382.96 237.48 383.13 238.49 188.93 284.03 188.75 283.02 382.96 237.48"/></g><g class="cls-5"><line class="cls-6" x1="188.84" y1="283.52" x2="383.05" y2="237.99"/><polygon class="cls-6" points="382.96 237.48 383.13 238.49 188.93 284.03 188.75 283.02 382.96 237.48"/></g><g class="cls-5"><line class="cls-6" x1="188.84" y1="283.52" x2="68.03" y2="321.95"/><polygon class="cls-6" points="188.7 283.03 188.97 284.01 68.17 322.45 67.89 321.46 188.7 283.03"/></g><g class="cls-5"><line class="cls-6" x1="125.3" y1="228.2" x2="188.84" y2="283.52"/><polygon class="cls-6" points="189.25 283.13 188.42 283.92 124.88 228.59 125.71 227.81 189.25 283.13"/></g><g class="cls-5"><line class="cls-6" x1="125.3" y1="228.2" x2="99.9" y2="112.87"/><polygon class="cls-6" points="100.46 112.72 125.86 228.05 124.74 228.35 99.34 113.02 100.46 112.72"/></g><g class="cls-5"><line class="cls-6" x1="125.3" y1="228.2" x2="252.02" y2="257.12"/><polygon class="cls-6" points="252.21 256.61 251.83 257.62 125.1 228.71 125.49 227.69 252.21 256.61"/></g><g class="cls-5"><line class="cls-6" x1="125.3" y1="228.2" x2="2.43" y2="142.49"/><polygon class="cls-6" points="125.67 227.77 124.92 228.63 2.05 142.93 2.8 142.07 125.67 227.77"/></g><g class="cls-5"><line class="cls-6" x1="125.3" y1="228.2" x2="183.89" y2="75.8"/><polygon class="cls-6" points="184.43 75.93 125.83 228.33 124.76 228.07 183.35 75.67 184.43 75.93"/></g><g class="cls-5"><line class="cls-6" x1="125.3" y1="228.2" x2="68.03" y2="321.95"/><polygon class="cls-6" points="125.78 228.42 68.52 322.17 67.54 321.73 124.81 227.98 125.78 228.42"/></g><g class="cls-5"><line class="cls-6" x1="328.59" y1="180.14" x2="125.3" y2="228.2"/><polygon class="cls-6" points="328.5 179.63 328.68 180.65 125.39 228.7 125.2 227.69 328.5 179.63"/></g><g class="cls-5"><line class="cls-6" x1="328.59" y1="180.14" x2="188.84" y2="283.52"/><polygon class="cls-6" points="328.93 180.54 189.17 283.91 188.5 283.13 328.26 179.75 328.93 180.54"/></g><g class="cls-5"><line class="cls-6" x1="328.59" y1="180.14" x2="252.02" y2="257.12"/><polygon class="cls-6" points="329 180.47 252.42 257.45 251.61 256.78 328.18 179.81 329 180.47"/></g><g class="cls-5"><line class="cls-6" x1="328.59" y1="180.14" x2="292.65" y2="376.14"/><polygon class="cls-6" points="329.16 180.18 293.21 376.18 292.09 376.1 328.03 180.11 329.16 180.18"/></g><g class="cls-5"><line class="cls-6" x1="328.59" y1="180.14" x2="183.89" y2="75.8"/><polygon class="cls-6" points="328.97 179.72 328.21 180.57 183.51 76.22 184.27 75.38 328.97 179.72"/></g><g class="cls-5"><line class="cls-6" x1="328.59" y1="180.14" x2="383.05" y2="237.99"/><polygon class="cls-6" points="383.5 237.62 382.59 238.35 328.14 180.51 329.04 179.78 383.5 237.62"/></g><g class="cls-5"><line class="cls-6" x1="328.59" y1="180.14" x2="383.05" y2="237.99"/><polygon class="cls-6" points="383.5 237.62 382.59 238.35 328.14 180.51 329.04 179.78 383.5 237.62"/></g><g class="cls-5"><line class="cls-6" x1="255.68" y1="18.8" x2="328.59" y2="180.14"/><polygon class="cls-6" points="329.13 179.9 328.06 180.38 255.14 19.04 256.21 18.56 329.13 179.9"/></g><g class="cls-5"><line class="cls-6" x1="255.68" y1="18.8" x2="99.9" y2="112.87"/><polygon class="cls-6" points="255.96 19.23 100.19 113.3 99.62 112.44 255.39 18.37 255.96 19.23"/></g><g class="cls-5"><line class="cls-6" x1="255.68" y1="18.8" x2="183.89" y2="75.8"/><polygon class="cls-6" points="256.03 19.18 184.24 76.18 183.54 75.42 255.33 18.42 256.03 19.18"/></g><g class="cls-5"><line class="cls-6" x1="136.81" y1="366.02" x2="125.3" y2="228.2"/><polygon class="cls-6" points="125.87 228.11 137.38 365.94 136.23 366.11 124.72 228.29 125.87 228.11"/></g><g class="cls-5"><line class="cls-6" x1="136.81" y1="366.02" x2="188.84" y2="283.52"/><polygon class="cls-6" points="189.32 283.74 137.3 366.25 136.32 365.8 188.34 283.29 189.32 283.74"/></g><g class="cls-5"><line class="cls-6" x1="136.81" y1="366.02" x2="252.02" y2="257.12"/><polygon class="cls-6" points="252.41 257.46 137.2 366.37 136.41 365.68 251.62 256.77 252.41 257.46"/></g><g class="cls-5"><line class="cls-6" x1="136.81" y1="366.02" x2="292.65" y2="376.14"/><polygon class="cls-6" points="292.74 375.62 292.55 376.67 136.71 366.55 136.9 365.5 292.74 375.62"/></g><g class="cls-5"><line class="cls-6" x1="136.81" y1="366.02" x2="68.03" y2="321.95"/><polygon class="cls-6" points="137.16 365.59 136.45 366.46 67.67 322.39 68.39 321.51 137.16 365.59"/></g><g class="cls-5"><line class="cls-6" x1="410.38" y1="138.09" x2="255.68" y2="18.8"/><polygon class="cls-6" points="410.77 137.67 409.99 138.51 255.28 19.21 256.07 18.39 410.77 137.67"/></g><g class="cls-5"><line class="cls-6" x1="410.38" y1="138.09" x2="328.59" y2="180.14"/><polygon class="cls-6" points="410.62 138.54 328.83 180.59 328.35 179.69 410.14 137.64 410.62 138.54"/></g><g class="cls-5"><line class="cls-6" x1="410.38" y1="138.09" x2="252.02" y2="257.12"/><polygon class="cls-6" points="410.72 138.48 252.35 257.51 251.68 256.72 410.05 137.7 410.72 138.48"/></g><g class="cls-5"><line class="cls-6" x1="410.38" y1="138.09" x2="383.05" y2="237.99"/><polygon class="cls-6" points="410.94 138.16 383.59 238.07 382.49 237.91 409.83 138.01 410.94 138.16"/></g><g class="cls-5"><line class="cls-6" x1="410.38" y1="138.09" x2="383.05" y2="237.99"/><polygon class="cls-6" points="410.94 138.16 383.59 238.07 382.49 237.91 409.83 138.01 410.94 138.16"/></g><g class="cls-5"><line class="cls-6" x1="410.38" y1="138.09" x2="255.68" y2="18.8"/><polygon class="cls-6" points="410.77 137.67 409.99 138.51 255.28 19.21 256.07 18.39 410.77 137.67"/></g><g class="cls-5"><line class="cls-6" x1="410.38" y1="138.09" x2="328.59" y2="180.14"/><polygon class="cls-6" points="410.62 138.54 328.83 180.59 328.35 179.69 410.14 137.64 410.62 138.54"/></g><g class="cls-5"><line class="cls-6" x1="410.38" y1="138.09" x2="252.02" y2="257.12"/><polygon class="cls-6" points="410.72 138.48 252.35 257.51 251.68 256.72 410.05 137.7 410.72 138.48"/></g><g class="cls-5"><line class="cls-6" x1="410.38" y1="138.09" x2="383.05" y2="237.99"/><polygon class="cls-6" points="410.94 138.16 383.59 238.07 382.49 237.91 409.83 138.01 410.94 138.16"/></g><g class="cls-5"><line class="cls-6" x1="410.38" y1="138.09" x2="383.05" y2="237.99"/><polygon class="cls-6" points="410.94 138.16 383.59 238.07 382.49 237.91 409.83 138.01 410.94 138.16"/></g><g class="cls-5"><line class="cls-6" x1="413.78" y1="138.08" x2="410.38" y2="138.09"/><polygon class="cls-6" points="413.83 137.55 413.73 138.6 410.33 138.61 410.44 137.57 413.83 137.55"/></g><g class="cls-5"><line class="cls-6" x1="413.78" y1="138.08" x2="410.38" y2="138.09"/><polygon class="cls-6" points="413.83 137.55 413.73 138.6 410.33 138.61 410.44 137.57 413.83 137.55"/></g><g class="cls-5"><line class="cls-6" x1="413.78" y1="138.08" x2="255.68" y2="18.8"/><polygon class="cls-6" points="414.17 137.66 413.39 138.49 255.29 19.22 256.07 18.38 414.17 137.66"/></g><g class="cls-5"><line class="cls-6" x1="413.78" y1="138.08" x2="328.59" y2="180.14"/><polygon class="cls-6" points="414.01 138.54 328.83 180.6 328.36 179.68 413.55 137.62 414.01 138.54"/></g><g class="cls-5"><line class="cls-6" x1="413.78" y1="138.08" x2="252.02" y2="257.12"/><polygon class="cls-6" points="414.11 138.47 252.35 257.51 251.69 256.72 413.45 137.68 414.11 138.47"/></g><g class="cls-5"><line class="cls-6" x1="413.78" y1="138.08" x2="383.05" y2="237.99"/><polygon class="cls-6" points="414.33 138.17 383.6 238.08 382.5 237.89 413.23 137.98 414.33 138.17"/></g><g class="cls-5"><line class="cls-6" x1="413.78" y1="138.08" x2="383.05" y2="237.99"/><polygon class="cls-6" points="414.33 138.17 383.6 238.08 382.5 237.89 413.23 137.98 414.33 138.17"/></g><g class="cls-5"><line class="cls-6" x1="83.79" y1="45.55" x2="255.68" y2="18.8"/><polygon class="cls-6" points="255.63 18.29 255.72 19.32 83.83 46.06 83.75 45.03 255.63 18.29"/></g><g class="cls-5"><line class="cls-6" x1="83.79" y1="45.55" x2="125.3" y2="228.2"/><polygon class="cls-6" points="84.36 45.39 125.86 228.04 124.74 228.35 83.23 45.71 84.36 45.39"/></g><g class="cls-5"><line class="cls-6" x1="83.79" y1="45.55" x2="99.9" y2="112.87"/><polygon class="cls-6" points="84.35 45.39 100.46 112.71 99.34 113.03 83.23 45.71 84.35 45.39"/></g><g class="cls-5"><line class="cls-6" x1="83.79" y1="45.55" x2="2.43" y2="142.49"/><polygon class="cls-6" points="84.24 45.84 2.87 142.79 1.99 142.21 83.35 45.25 84.24 45.84"/></g><g class="cls-5"><line class="cls-6" x1="83.79" y1="45.55" x2="183.89" y2="75.8"/><polygon class="cls-6" points="184.12 75.3 183.66 76.3 83.57 46.05 84.02 45.05 184.12 75.3"/></g><path class="cls-6" d="M404.54,261a2.18,2.18,0,1,1-1.38,3A2.33,2.33,0,0,1,404.54,261Z" transform="translate(-22.37 -25)"/><ellipse class="cls-6" cx="315.02" cy="401.14" rx="2.47" ry="2.16" transform="translate(-157.54 136.4) rotate(-23.82)"/><path class="cls-6" d="M404.54,261a2.18,2.18,0,1,1-1.38,3A2.33,2.33,0,0,1,404.54,261Z" transform="translate(-22.37 -25)"/><ellipse class="cls-6" cx="315.02" cy="401.14" rx="2.47" ry="2.16" transform="translate(-157.54 136.4) rotate(-23.82)"/><path class="cls-6" d="M205.38,98.82a2.18,2.18,0,1,1-1.38,3A2.34,2.34,0,0,1,205.38,98.82Z" transform="translate(-22.37 -25)"/><path class="cls-6" d="M23.92,165.52a2.18,2.18,0,1,1,1.74,4,2.18,2.18,0,1,1-1.74-4Z" transform="translate(-22.37 -25)"/><ellipse class="cls-6" cx="90.4" cy="346.95" rx="2.47" ry="2.16" transform="translate(-154.62 40.93) rotate(-23.79)"/><path class="cls-6" d="M23.92,165.52a2.18,2.18,0,1,1,1.74,4,2.18,2.18,0,1,1-1.74-4Z" transform="translate(-22.37 -25)"/><ellipse class="cls-6" cx="315.02" cy="401.14" rx="2.47" ry="2.16" transform="translate(-157.54 136.4) rotate(-23.82)"/><ellipse class="cls-6" cx="274.39" cy="282.11" rx="2.47" ry="2.16" transform="translate(-112.9 109.77) rotate(-23.81)"/><path class="cls-6" d="M205.38,98.82a2.18,2.18,0,1,1-1.38,3A2.34,2.34,0,0,1,205.38,98.82Z" transform="translate(-22.37 -25)"/><ellipse class="cls-6" cx="274.39" cy="282.11" rx="2.47" ry="2.16" transform="translate(-112.9 109.77) rotate(-23.81)"/><path class="cls-6" d="M404.54,261a2.18,2.18,0,1,1-1.38,3A2.33,2.33,0,0,1,404.54,261Z" transform="translate(-22.37 -25)"/><ellipse class="cls-6" cx="274.39" cy="282.11" rx="2.47" ry="2.16" transform="translate(-112.9 109.77) rotate(-23.81)"/><path class="cls-6" d="M404.54,261a2.18,2.18,0,1,1-1.38,3A2.33,2.33,0,0,1,404.54,261Z" transform="translate(-22.37 -25)"/><ellipse class="cls-6" cx="274.39" cy="282.11" rx="2.47" ry="2.16" transform="translate(-112.9 109.77) rotate(-23.81)"/><ellipse class="cls-6" cx="90.4" cy="346.95" rx="2.47" ry="2.16" transform="translate(-154.62 40.93) rotate(-23.79)"/><ellipse class="cls-6" cx="274.39" cy="282.11" rx="2.47" ry="2.16" transform="translate(-112.9 109.77) rotate(-23.81)"/><path class="cls-6" d="M23.92,165.52a2.18,2.18,0,1,1,1.74,4,2.18,2.18,0,1,1-1.74-4Z" transform="translate(-22.37 -25)"/><path class="cls-6" d="M121.4,135.89a2.18,2.18,0,1,1-1.38,3A2.33,2.33,0,0,1,121.4,135.89Z" transform="translate(-22.37 -25)"/><path class="cls-6" d="M205.38,98.82a2.18,2.18,0,1,1-1.38,3A2.34,2.34,0,0,1,205.38,98.82Z" transform="translate(-22.37 -25)"/><path class="cls-6" d="M121.4,135.89a2.18,2.18,0,1,1-1.38,3A2.33,2.33,0,0,1,121.4,135.89Z" transform="translate(-22.37 -25)"/><ellipse class="cls-6" cx="90.4" cy="346.95" rx="2.47" ry="2.16" transform="translate(-154.62 40.93) rotate(-23.79)"/><path class="cls-6" d="M121.4,135.89a2.18,2.18,0,1,1-1.38,3A2.33,2.33,0,0,1,121.4,135.89Z" transform="translate(-22.37 -25)"/><path class="cls-6" d="M121.4,135.89a2.18,2.18,0,1,1-1.38,3A2.33,2.33,0,0,1,121.4,135.89Z" transform="translate(-22.37 -25)"/><path class="cls-6" d="M210.33,306.53a2.18,2.18,0,1,1-1.39,3A2.33,2.33,0,0,1,210.33,306.53Z" transform="translate(-22.37 -25)"/><ellipse class="cls-6" cx="274.39" cy="282.11" rx="2.47" ry="2.16" transform="translate(-112.9 109.77) rotate(-23.81)"/><path class="cls-6" d="M210.33,306.53a2.18,2.18,0,1,1-1.39,3A2.33,2.33,0,0,1,210.33,306.53Z" transform="translate(-22.37 -25)"/><ellipse class="cls-6" cx="315.02" cy="401.14" rx="2.47" ry="2.16" transform="translate(-157.54 136.4) rotate(-23.82)"/><path class="cls-6" d="M210.33,306.53a2.18,2.18,0,1,1-1.39,3A2.33,2.33,0,0,1,210.33,306.53Z" transform="translate(-22.37 -25)"/><path class="cls-6" d="M205.38,98.82a2.18,2.18,0,1,1-1.38,3A2.34,2.34,0,0,1,205.38,98.82Z" transform="translate(-22.37 -25)"/><path class="cls-6" d="M210.33,306.53a2.18,2.18,0,1,1-1.39,3A2.33,2.33,0,0,1,210.33,306.53Z" transform="translate(-22.37 -25)"/><path class="cls-6" d="M404.54,261a2.18,2.18,0,1,1-1.38,3A2.33,2.33,0,0,1,404.54,261Z" transform="translate(-22.37 -25)"/><path class="cls-6" d="M210.33,306.53a2.18,2.18,0,1,1-1.39,3A2.33,2.33,0,0,1,210.33,306.53Z" transform="translate(-22.37 -25)"/><path class="cls-6" d="M404.54,261a2.18,2.18,0,1,1-1.38,3A2.33,2.33,0,0,1,404.54,261Z" transform="translate(-22.37 -25)"/><path class="cls-6" d="M210.33,306.53a2.18,2.18,0,1,1-1.39,3A2.33,2.33,0,0,1,210.33,306.53Z" transform="translate(-22.37 -25)"/><ellipse class="cls-6" cx="90.4" cy="346.95" rx="2.47" ry="2.16" transform="translate(-154.62 40.93) rotate(-23.79)"/><path class="cls-6" d="M210.33,306.53a2.18,2.18,0,1,1-1.39,3A2.33,2.33,0,0,1,210.33,306.53Z" transform="translate(-22.37 -25)"/><path class="cls-6" d="M210.33,306.53a2.18,2.18,0,1,1-1.39,3A2.33,2.33,0,0,1,210.33,306.53Z" transform="translate(-22.37 -25)"/><path class="cls-6" d="M146.79,251.22a2.18,2.18,0,1,1-1.38,3A2.32,2.32,0,0,1,146.79,251.22Z" transform="translate(-22.37 -25)"/><path class="cls-6" d="M121.4,135.89a2.18,2.18,0,1,1-1.38,3A2.33,2.33,0,0,1,121.4,135.89Z" transform="translate(-22.37 -25)"/><path class="cls-6" d="M146.79,251.22a2.18,2.18,0,1,1-1.38,3A2.32,2.32,0,0,1,146.79,251.22Z" transform="translate(-22.37 -25)"/><ellipse class="cls-6" cx="274.39" cy="282.11" rx="2.47" ry="2.16" transform="translate(-112.9 109.77) rotate(-23.81)"/><path class="cls-6" d="M146.79,251.22a2.18,2.18,0,1,1-1.38,3A2.32,2.32,0,0,1,146.79,251.22Z" transform="translate(-22.37 -25)"/><path class="cls-6" d="M23.92,165.52a2.18,2.18,0,1,1,1.74,4,2.18,2.18,0,1,1-1.74-4Z" transform="translate(-22.37 -25)"/><path class="cls-6" d="M146.79,251.22a2.18,2.18,0,1,1-1.38,3A2.32,2.32,0,0,1,146.79,251.22Z" transform="translate(-22.37 -25)"/><path class="cls-6" d="M205.38,98.82a2.18,2.18,0,1,1-1.38,3A2.34,2.34,0,0,1,205.38,98.82Z" transform="translate(-22.37 -25)"/><path class="cls-6" d="M146.79,251.22a2.18,2.18,0,1,1-1.38,3A2.32,2.32,0,0,1,146.79,251.22Z" transform="translate(-22.37 -25)"/><ellipse class="cls-6" cx="90.4" cy="346.95" rx="2.47" ry="2.16" transform="translate(-154.62 40.93) rotate(-23.79)"/><path class="cls-6" d="M146.79,251.22a2.18,2.18,0,1,1-1.38,3A2.32,2.32,0,0,1,146.79,251.22Z" transform="translate(-22.37 -25)"/><path class="cls-6" d="M146.79,251.22a2.18,2.18,0,1,1-1.38,3A2.32,2.32,0,0,1,146.79,251.22Z" transform="translate(-22.37 -25)"/><path class="cls-6" d="M350.09,203.17a2.18,2.18,0,1,1-1.38,3A2.33,2.33,0,0,1,350.09,203.17Z" transform="translate(-22.37 -25)"/><path class="cls-6" d="M210.33,306.53a2.18,2.18,0,1,1-1.39,3A2.33,2.33,0,0,1,210.33,306.53Z" transform="translate(-22.37 -25)"/><path class="cls-6" d="M350.09,203.17a2.18,2.18,0,1,1-1.38,3A2.33,2.33,0,0,1,350.09,203.17Z" transform="translate(-22.37 -25)"/><ellipse class="cls-6" cx="274.39" cy="282.11" rx="2.47" ry="2.16" transform="translate(-112.9 109.77) rotate(-23.81)"/><path class="cls-6" d="M350.09,203.17a2.18,2.18,0,1,1-1.38,3A2.33,2.33,0,0,1,350.09,203.17Z" transform="translate(-22.37 -25)"/><ellipse class="cls-6" cx="315.02" cy="401.14" rx="2.47" ry="2.16" transform="translate(-157.54 136.4) rotate(-23.82)"/><path class="cls-6" d="M350.09,203.17a2.18,2.18,0,1,1-1.38,3A2.33,2.33,0,0,1,350.09,203.17Z" transform="translate(-22.37 -25)"/><path class="cls-6" d="M205.38,98.82a2.18,2.18,0,1,1-1.38,3A2.34,2.34,0,0,1,205.38,98.82Z" transform="translate(-22.37 -25)"/><path class="cls-6" d="M350.09,203.17a2.18,2.18,0,1,1-1.38,3A2.33,2.33,0,0,1,350.09,203.17Z" transform="translate(-22.37 -25)"/><path class="cls-6" d="M404.54,261a2.18,2.18,0,1,1-1.38,3A2.33,2.33,0,0,1,404.54,261Z" transform="translate(-22.37 -25)"/><path class="cls-6" d="M350.09,203.17a2.18,2.18,0,1,1-1.38,3A2.33,2.33,0,0,1,350.09,203.17Z" transform="translate(-22.37 -25)"/><path class="cls-6" d="M404.54,261a2.18,2.18,0,1,1-1.38,3A2.33,2.33,0,0,1,404.54,261Z" transform="translate(-22.37 -25)"/><path class="cls-6" d="M350.09,203.17a2.18,2.18,0,1,1-1.38,3A2.33,2.33,0,0,1,350.09,203.17Z" transform="translate(-22.37 -25)"/><path class="cls-6" d="M350.09,203.17a2.18,2.18,0,1,1-1.38,3A2.33,2.33,0,0,1,350.09,203.17Z" transform="translate(-22.37 -25)"/><path class="cls-6" d="M277.17,41.83a2.18,2.18,0,1,1-1.38,3A2.33,2.33,0,0,1,277.17,41.83Z" transform="translate(-22.37 -25)"/><path class="cls-6" d="M121.4,135.89a2.18,2.18,0,1,1-1.38,3A2.33,2.33,0,0,1,121.4,135.89Z" transform="translate(-22.37 -25)"/><path class="cls-6" d="M277.17,41.83a2.18,2.18,0,1,1-1.38,3A2.33,2.33,0,0,1,277.17,41.83Z" transform="translate(-22.37 -25)"/><path class="cls-6" d="M205.38,98.82a2.18,2.18,0,1,1-1.38,3A2.34,2.34,0,0,1,205.38,98.82Z" transform="translate(-22.37 -25)"/><path class="cls-6" d="M277.17,41.83a2.18,2.18,0,1,1-1.38,3A2.33,2.33,0,0,1,277.17,41.83Z" transform="translate(-22.37 -25)"/><path class="cls-6" d="M146.79,251.22a2.18,2.18,0,1,1-1.38,3A2.32,2.32,0,0,1,146.79,251.22Z" transform="translate(-22.37 -25)"/><path class="cls-6" d="M158.3,389a2.18,2.18,0,1,1-1.39,3A2.33,2.33,0,0,1,158.3,389Z" transform="translate(-22.37 -25)"/><path class="cls-6" d="M210.33,306.53a2.18,2.18,0,1,1-1.39,3A2.33,2.33,0,0,1,210.33,306.53Z" transform="translate(-22.37 -25)"/><path class="cls-6" d="M158.3,389a2.18,2.18,0,1,1-1.39,3A2.33,2.33,0,0,1,158.3,389Z" transform="translate(-22.37 -25)"/><ellipse class="cls-6" cx="274.39" cy="282.11" rx="2.47" ry="2.16" transform="translate(-112.9 109.77) rotate(-23.81)"/><path class="cls-6" d="M158.3,389a2.18,2.18,0,1,1-1.39,3A2.33,2.33,0,0,1,158.3,389Z" transform="translate(-22.37 -25)"/><ellipse class="cls-6" cx="315.02" cy="401.14" rx="2.47" ry="2.16" transform="translate(-157.54 136.4) rotate(-23.82)"/><path class="cls-6" d="M158.3,389a2.18,2.18,0,1,1-1.39,3A2.33,2.33,0,0,1,158.3,389Z" transform="translate(-22.37 -25)"/><ellipse class="cls-6" cx="90.4" cy="346.95" rx="2.47" ry="2.16" transform="translate(-154.62 40.93) rotate(-23.79)"/><path class="cls-6" d="M158.3,389a2.18,2.18,0,1,1-1.39,3A2.33,2.33,0,0,1,158.3,389Z" transform="translate(-22.37 -25)"/><path class="cls-6" d="M277.17,41.83a2.18,2.18,0,1,1-1.38,3A2.33,2.33,0,0,1,277.17,41.83Z" transform="translate(-22.37 -25)"/><path class="cls-6" d="M431.88,161.11a2.18,2.18,0,1,1-1.39,3A2.32,2.32,0,0,1,431.88,161.11Z" transform="translate(-22.37 -25)"/><path class="cls-6" d="M350.09,203.17a2.18,2.18,0,1,1-1.38,3A2.33,2.33,0,0,1,350.09,203.17Z" transform="translate(-22.37 -25)"/><path class="cls-6" d="M431.88,161.11a2.18,2.18,0,1,1-1.39,3A2.32,2.32,0,0,1,431.88,161.11Z" transform="translate(-22.37 -25)"/><ellipse class="cls-6" cx="274.39" cy="282.11" rx="2.47" ry="2.16" transform="translate(-112.9 109.77) rotate(-23.81)"/><path class="cls-6" d="M431.88,161.11a2.18,2.18,0,1,1-1.39,3A2.32,2.32,0,0,1,431.88,161.11Z" transform="translate(-22.37 -25)"/><path class="cls-6" d="M404.54,261a2.18,2.18,0,1,1-1.38,3A2.33,2.33,0,0,1,404.54,261Z" transform="translate(-22.37 -25)"/><path class="cls-6" d="M431.88,161.11a2.18,2.18,0,1,1-1.39,3A2.32,2.32,0,0,1,431.88,161.11Z" transform="translate(-22.37 -25)"/><path class="cls-6" d="M404.54,261a2.18,2.18,0,1,1-1.38,3A2.33,2.33,0,0,1,404.54,261Z" transform="translate(-22.37 -25)"/><path class="cls-6" d="M431.88,161.11a2.18,2.18,0,1,1-1.39,3A2.32,2.32,0,0,1,431.88,161.11Z" transform="translate(-22.37 -25)"/><path class="cls-6" d="M277.17,41.83a2.18,2.18,0,1,1-1.38,3A2.33,2.33,0,0,1,277.17,41.83Z" transform="translate(-22.37 -25)"/><path class="cls-6" d="M431.88,161.11a2.18,2.18,0,1,1-1.39,3A2.32,2.32,0,0,1,431.88,161.11Z" transform="translate(-22.37 -25)"/><path class="cls-6" d="M350.09,203.17a2.18,2.18,0,1,1-1.38,3A2.33,2.33,0,0,1,350.09,203.17Z" transform="translate(-22.37 -25)"/><path class="cls-6" d="M431.88,161.11a2.18,2.18,0,1,1-1.39,3A2.32,2.32,0,0,1,431.88,161.11Z" transform="translate(-22.37 -25)"/><ellipse class="cls-6" cx="274.39" cy="282.11" rx="2.47" ry="2.16" transform="translate(-112.9 109.77) rotate(-23.81)"/><path class="cls-6" d="M431.88,161.11a2.18,2.18,0,1,1-1.39,3A2.32,2.32,0,0,1,431.88,161.11Z" transform="translate(-22.37 -25)"/><path class="cls-6" d="M404.54,261a2.18,2.18,0,1,1-1.38,3A2.33,2.33,0,0,1,404.54,261Z" transform="translate(-22.37 -25)"/><path class="cls-6" d="M431.88,161.11a2.18,2.18,0,1,1-1.39,3A2.32,2.32,0,0,1,431.88,161.11Z" transform="translate(-22.37 -25)"/><path class="cls-6" d="M404.54,261a2.18,2.18,0,1,1-1.38,3A2.33,2.33,0,0,1,404.54,261Z" transform="translate(-22.37 -25)"/><path class="cls-6" d="M431.88,161.11a2.18,2.18,0,1,1-1.39,3A2.32,2.32,0,0,1,431.88,161.11Z" transform="translate(-22.37 -25)"/><path class="cls-6" d="M431.88,161.11a2.18,2.18,0,1,1-1.39,3A2.32,2.32,0,0,1,431.88,161.11Z" transform="translate(-22.37 -25)"/><path class="cls-6" d="M435.28,161.1a2.18,2.18,0,1,1-1.4,3A2.32,2.32,0,0,1,435.28,161.1Z" transform="translate(-22.37 -25)"/><path class="cls-6" d="M431.88,161.11a2.18,2.18,0,1,1-1.39,3A2.32,2.32,0,0,1,431.88,161.11Z" transform="translate(-22.37 -25)"/><path class="cls-6" d="M435.28,161.1a2.18,2.18,0,1,1-1.4,3A2.32,2.32,0,0,1,435.28,161.1Z" transform="translate(-22.37 -25)"/><path class="cls-6" d="M277.17,41.83a2.18,2.18,0,1,1-1.38,3A2.33,2.33,0,0,1,277.17,41.83Z" transform="translate(-22.37 -25)"/><path class="cls-6" d="M435.28,161.1a2.18,2.18,0,1,1-1.4,3A2.32,2.32,0,0,1,435.28,161.1Z" transform="translate(-22.37 -25)"/><path class="cls-6" d="M350.09,203.17a2.18,2.18,0,1,1-1.38,3A2.33,2.33,0,0,1,350.09,203.17Z" transform="translate(-22.37 -25)"/><path class="cls-6" d="M435.28,161.1a2.18,2.18,0,1,1-1.4,3A2.32,2.32,0,0,1,435.28,161.1Z" transform="translate(-22.37 -25)"/><ellipse class="cls-6" cx="274.39" cy="282.11" rx="2.47" ry="2.16" transform="translate(-112.9 109.77) rotate(-23.81)"/><path class="cls-6" d="M435.28,161.1a2.18,2.18,0,1,1-1.4,3A2.32,2.32,0,0,1,435.28,161.1Z" transform="translate(-22.37 -25)"/><path class="cls-6" d="M404.54,261a2.18,2.18,0,1,1-1.38,3A2.33,2.33,0,0,1,404.54,261Z" transform="translate(-22.37 -25)"/><path class="cls-6" d="M435.28,161.1a2.18,2.18,0,1,1-1.4,3A2.32,2.32,0,0,1,435.28,161.1Z" transform="translate(-22.37 -25)"/><path class="cls-6" d="M404.54,261a2.18,2.18,0,1,1-1.38,3A2.33,2.33,0,0,1,404.54,261Z" transform="translate(-22.37 -25)"/><path class="cls-6" d="M435.28,161.1a2.18,2.18,0,1,1-1.4,3A2.32,2.32,0,0,1,435.28,161.1Z" transform="translate(-22.37 -25)"/><path class="cls-6" d="M277.17,41.83a2.18,2.18,0,1,1-1.38,3A2.33,2.33,0,0,1,277.17,41.83Z" transform="translate(-22.37 -25)"/><ellipse class="cls-6" cx="106.16" cy="70.55" rx="2.47" ry="2.16" transform="translate(-41.82 23.89) rotate(-23.82)"/><path class="cls-6" d="M146.79,251.22a2.18,2.18,0,1,1-1.38,3A2.32,2.32,0,0,1,146.79,251.22Z" transform="translate(-22.37 -25)"/><ellipse class="cls-6" cx="106.16" cy="70.55" rx="2.47" ry="2.16" transform="translate(-41.82 23.89) rotate(-23.82)"/><path class="cls-6" d="M121.4,135.89a2.18,2.18,0,1,1-1.38,3A2.33,2.33,0,0,1,121.4,135.89Z" transform="translate(-22.37 -25)"/><ellipse class="cls-6" cx="106.16" cy="70.55" rx="2.47" ry="2.16" transform="translate(-41.82 23.89) rotate(-23.82)"/><path class="cls-6" d="M23.92,165.52a2.18,2.18,0,1,1,1.74,4,2.18,2.18,0,1,1-1.74-4Z" transform="translate(-22.37 -25)"/><ellipse class="cls-6" cx="106.16" cy="70.55" rx="2.47" ry="2.16" transform="translate(-41.82 23.89) rotate(-23.82)"/><path class="cls-6" d="M205.38,98.82a2.18,2.18,0,1,1-1.38,3A2.34,2.34,0,0,1,205.38,98.82Z" transform="translate(-22.37 -25)"/><ellipse class="cls-6" cx="106.16" cy="70.55" rx="2.47" ry="2.16" transform="translate(-41.82 23.89) rotate(-23.82)"/></g></g></g></svg>