<svg id="Laag_1" data-name="Laag 1" xmlns="http://www.w3.org/2000/svg" viewBox="0 0 512 508.91"><defs><style>.cls-1{fill:#43bc2a;}</style></defs><title>icon-efficiency</title><path class="cls-1" d="M495.35,412.89a31.93,31.93,0,0,0,8.48-6.42,31.19,31.19,0,0,0,7.65-19.9c0-20.4-20-33-34.5-29.3L303.61,400.91A32.54,32.54,0,0,0,295.37,387l-55.23-55.23a36,36,0,0,0-25.64-10.62H104.31A38,38,0,0,0,66.55,287.3H38a38,38,0,0,0-38,38V458.72a38,38,0,0,0,38,38H66.55a38,38,0,0,0,38-38V445.41c55.39,9.57,43.47,6.08,126,46.47,13.41,6.57,26.35,19,53.72,19A77.16,77.16,0,0,0,325.46,499L468.52,426.5A262.86,262.86,0,0,0,495.35,412.89Zm-33.64.19c-.52.26-143.53,72.75-144,73.06a62.14,62.14,0,0,1-33.41,9.73c-22.82,0-32.73-10.46-47.11-17.5-83.94-41.07-72-37.75-132.64-48.22v-94H214.49a21.08,21.08,0,0,1,15,6.22l55.22,55.22c10.88,10.88,3.56,29.13-11.5,29.13a16.76,16.76,0,0,1-11.91-4.93L211.56,372a7.52,7.52,0,0,0-10.64,10.64l49.76,49.77c17.94,17.88,48.82,8.75,53.65-16.21,169.83-42.75,175.91-44.41,177.12-44.38l.35,0c5,.39,10.21,4.64,12.15,9.81,2.23,6,.12,13.2-5.39,17.78M88.46,459.77a23,23,0,0,1-22.95,22.95H36.94A23,23,0,0,1,14,459.77V326.33a23,23,0,0,1,22.94-22.94H65.51a23,23,0,0,1,22.56,18.78C88.63,325.18,88.46,316.18,88.46,459.77Z" transform="translate(0 -2)"/><path class="cls-1" d="M501.92,186.9l-36.27-13.2a115.28,115.28,0,0,0,0-12.94l36.26-13.2a15.3,15.3,0,0,0,9.16-19.63L498.75,94.09a15.34,15.34,0,0,0-19.63-9.16l-36.26,13.2a116.17,116.17,0,0,0-8.32-9.91l19.3-33.42a15.33,15.33,0,0,0-5.61-20.92L417,15.88a15.31,15.31,0,0,0-20.92,5.61l-19.29,33.4a114.62,114.62,0,0,0-12.75-2.23l-6.7-38A15.33,15.33,0,0,0,339.65,2.23L304.18,8.48a15.33,15.33,0,0,0-12.42,17.74l6.7,38a115.9,115.9,0,0,0-11.21,6.48L257.7,45.89a15.3,15.3,0,0,0-21.57,1.89L213,75.37a15.3,15.3,0,0,0,1.89,21.57l29.55,24.79A115.26,115.26,0,0,0,240,133.91H201.41a15.33,15.33,0,0,0-15.31,15.32v36a15.33,15.33,0,0,0,15.31,15.32H240a115,115,0,0,0,4.43,12.17l-29.55,24.79A15.34,15.34,0,0,0,213,259.09l23.15,27.59a15.34,15.34,0,0,0,21.57,1.89l29.56-24.8a115.9,115.9,0,0,0,11.21,6.48l-6.7,38A15.31,15.31,0,0,0,304.18,326l35.46,6.25a15.33,15.33,0,0,0,17.74-12.42l6.7-38a114.85,114.85,0,0,0,12.75-2.23L396.13,313a15.33,15.33,0,0,0,20.92,5.61l31.19-18a15.33,15.33,0,0,0,5.6-20.92l-19.3-33.43a115.56,115.56,0,0,0,8.32-9.91l36.26,13.2a15.31,15.31,0,0,0,19.63-9.16l12.32-33.84A15.31,15.31,0,0,0,501.92,186.9Zm-5,14.48-12.32,33.84a.25.25,0,0,1-.14.15.24.24,0,0,1-.21,0l-41.64-15.16a7.53,7.53,0,0,0-8.82,2.88A100.91,100.91,0,0,1,420,239.6a7.52,7.52,0,0,0-1.3,9.18l22.16,38.39a.27.27,0,0,1-.1.38l-31.19,18a.27.27,0,0,1-.37-.1L387,267.09a7.52,7.52,0,0,0-8.6-3.46,100.33,100.33,0,0,1-21.21,3.71,7.52,7.52,0,0,0-6.91,6.2l-7.7,43.66a.28.28,0,0,1-.32.22c-.41-.07-35.76-6.15-35.68-6.57l7.7-43.63a7.53,7.53,0,0,0-4.36-8.18,100.67,100.67,0,0,1-18.64-10.79,7.52,7.52,0,0,0-9.28.3L248,277a.27.27,0,0,1-.38,0L224.5,249.42a.28.28,0,0,1,0-.39l33.94-28.48a7.51,7.51,0,0,0,1.91-9.08A99.74,99.74,0,0,1,253,191.23a7.52,7.52,0,0,0-7.3-5.73H201.41a.27.27,0,0,1-.27-.27v-36a.27.27,0,0,1,.27-.27h44.31a7.52,7.52,0,0,0,7.3-5.73A99.8,99.8,0,0,1,260.38,123a7.52,7.52,0,0,0-1.91-9.09L224.53,85.42a.24.24,0,0,1-.1-.18.24.24,0,0,1,.07-.2l23.14-27.59a.27.27,0,0,1,.19-.1.26.26,0,0,1,.2.06l34,28.49a7.51,7.51,0,0,0,9.28.31,100.23,100.23,0,0,1,18.64-10.79,7.53,7.53,0,0,0,4.36-8.18l-7.7-43.63a.27.27,0,0,1,.22-.32L342.26,17a.26.26,0,0,1,.2,0,.25.25,0,0,1,.11.18l7.7,43.66a7.52,7.52,0,0,0,6.91,6.2,100.24,100.24,0,0,1,21.21,3.71A7.53,7.53,0,0,0,387,67.38L409.15,29a.25.25,0,0,1,.17-.12.24.24,0,0,1,.21,0l31.19,18a.28.28,0,0,1,.1.38L418.65,85.68a7.52,7.52,0,0,0,1.3,9.18,101,101,0,0,1,13.86,16.5,7.53,7.53,0,0,0,8.82,2.87l41.64-15.16a.28.28,0,0,1,.35.16l12.32,33.84a.24.24,0,0,1,0,.21.25.25,0,0,1-.15.14l-41.65,15.16a7.52,7.52,0,0,0-4.9,7.87,101.13,101.13,0,0,1,0,21.55,7.52,7.52,0,0,0,4.9,7.87L496.77,201a.25.25,0,0,1,.15.14A.24.24,0,0,1,496.94,201.38Z" transform="translate(0 -2)"/><path class="cls-1" d="M409.14,118.29l-84.56,84.56-35.64-35.64a7.52,7.52,0,1,0-10.64,10.64l36.48,36.48a13.85,13.85,0,0,0,19.59,0l85.4-85.4a7.52,7.52,0,0,0-10.64-10.64Z" transform="translate(0 -2)"/></svg>