<svg id="Laag_1" data-name="Laag 1" xmlns="http://www.w3.org/2000/svg" viewBox="0 0 511.59 512.69"><defs><style>.cls-1{fill:none;}.cls-2{fill:#43bc2a;}</style></defs><title>icon-planet</title><path class="cls-1" d="M380.4,298c0-91.68-74.13-166-165.57-166S49.26,206.29,49.26,298s74.12,166,165.57,166S380.4,389.66,380.4,298Z" transform="translate(0 0.69)"/><path class="cls-1" d="M193.31,196.48c-25.5,16-44.63,41.55-30.29,70.32s46.23,17.58,75.72,13.59,7.17,87.11,24.71,109.48,66.95-22.38,62.17-51.15c-7.08-42.59-9.56-57.54,47.82-87.91l.16-.05c-19.34-65.5-77.89-114.1-148.4-118.47v.25S218.82,180.5,193.31,196.48Z" transform="translate(0 0.69)"/><path class="cls-1" d="M318.57,168.6l0,0Z" transform="translate(0 0.69)"/><path class="cls-1" d="M338.81,188h0Z" transform="translate(0 0.69)"/><path class="cls-1" d="M104.84,373.09c-7.66-11.68,13.55-39.16,18.33-59.93S99.26,294,90.49,286.79,69.77,248.43,61,241.23l-1.4-1.11a166.48,166.48,0,0,0,57.14,191.59l.05-3.48S123.17,401.06,104.84,373.09Z" transform="translate(0 0.69)"/><path class="cls-1" d="M325.62,338.73c0-.21-.07-.41-.1-.62a165.22,165.22,0,0,1-13.76,36.44C321.18,363.43,327.47,349.88,325.62,338.73Z" transform="translate(0 0.69)"/><path class="cls-1" d="M169.07,188.94C89,175.35,39.34,74.54,39.34,74.54S119.48-4.24,199.55,9.34,329.28,123.73,329.28,123.73,249.14,202.52,169.07,188.94Z" transform="translate(0 0.69)"/><path class="cls-1" d="M383.74,91.09c21.48-50.82,95.9-67.94,95.9-67.94s39.6,65.29,18.12,116.12-95.9,67.93-95.9,67.93S362.26,141.91,383.74,91.09Z" transform="translate(0 0.69)"/><path class="cls-2" d="M287,76.13c5.34,6.61,10.84,14,16.31,22.22,4.24,6.37,8,12.57,11.37,18.49l-68.32-13.32L181.45,15q4.73.07,9.47.54s4.74.48,9.46,1.4C229,22.45,259,47.11,259,47.11A178,178,0,0,1,287,76.13Zm-92,394c42.25,4.66,98.82-8.13,140.39-48.39a173.28,173.28,0,0,0-26.68-269.14c9.91-7.07,17.29-13.18,21.39-16.72A199.58,199.58,0,0,1,410.59,330.3C392.7,438.61,290,512.18,181.71,494.29a199.09,199.09,0,0,1-164-228.86C19.27,256,4.48,253.51,2.91,263A214.08,214.08,0,0,0,179.27,509.09,216.8,216.8,0,0,0,214.61,512,214.22,214.22,0,0,0,410.52,212.42a215.88,215.88,0,0,0,34.58-13.62c29.48-14.72,50.07-34.37,59.56-56.82s9.23-50.91-.77-82.31a206,206,0,0,0-17.85-40.62A7.65,7.65,0,0,0,478,15.64a206.18,206.18,0,0,0-41.56,15.51C406.91,45.86,386.32,65.51,376.83,88c-7.9,18.69-9,41.55-3.43,66.79a212.75,212.75,0,0,0-40-34.8,288.69,288.69,0,0,0-34.76-53.28c-7.52-9.14-16.54-20-30-31-8.44-6.9-32.3-26.42-65.44-33.5C176.18-3.6,142-3.17,87.34,27.73A299.29,299.29,0,0,0,34.89,65.2,7.94,7.94,0,0,0,34,75.49a306.07,306.07,0,0,0,33.64,52.8,234.56,234.56,0,0,0,35.46,36.45q-5.24,4.39-10.18,9.21A173.36,173.36,0,0,0,149,458.56,188.13,188.13,0,0,0,195,470.17Zm-40.36-25.51a168.19,168.19,0,0,1-16.8-8,158.34,158.34,0,0,1-15.64-9.85c1.28-7.11,4.25-32.68-12.73-59.16-2.38-3.7,4.73-18.25,9-26.93,4.38-9,8.9-18.21,11-26.93,2.24-9.26-.28-17-7.3-22.48-5.15-4-11.89-6.07-17.83-7.9-3.86-1.19-8.23-2.53-9.8-3.84-3.22-2.7-8.48-12.66-12.7-20.66-4.69-8.88-9.15-17.33-13.71-22.53A159.5,159.5,0,0,1,115.48,174c18.84,12.84,40.34,21.69,63.2,23.48-26.51,20.54-35.08,46.77-22.82,72,14.31,29.42,43.77,24.72,69.76,20.58,4.5-.72,9.15-1.46,13.61-2,1.67-.21,2.18.25,2.51.54,5.69,5.06,5.52,29.24,5.4,46.9-.17,24.42-.32,47.49,8.77,59.33a22.89,22.89,0,0,0,18.84,9.13,37.83,37.83,0,0,0,14.81-3.35c22.62-9.69,46.14-38.84,42.55-61.91-3.14-20.17-5.21-33.49-.32-44.23,4.52-9.94,15.45-19.14,37-30.89a157.76,157.76,0,0,1-43.86,147.54c-44,42.59-101.83,47.17-128.26,44.2C174.7,452.8,154.65,444.66,154.65,444.66ZM68.57,265.91c5.58,10.58,10.86,20.58,16.34,25.17,3.88,3.25,9.29,4.91,15,6.67,14.66,4.51,16.36,6.72,15,12.52-1.73,7.13-5.89,15.64-9.91,23.87-7.75,15.85-15.06,30.81-8.13,41.63a71.33,71.33,0,0,1,11.35,39.8C63.52,375.27,45.32,311.64,62,253.81,64.17,257.59,66.49,262,68.57,265.91Zm362.89-147.4L410.14,66.86c10.37-9.7,22.41-17,32.66-22.14a200.4,200.4,0,0,1,23.7-10Zm48.87-78a200.51,200.51,0,0,1,9.38,24,143.38,143.38,0,0,1,6.79,36.16l-50,20.61ZM390.65,93.8A71.27,71.27,0,0,1,399,79.24L423.29,138l-21.78,52.07a199.52,199.52,0,0,1-9.72-24.7C385.66,146,380.48,117.85,390.65,93.8Zm48.05,91.43a199.48,199.48,0,0,1-23,9.71l22.6-54,57.52-23.73a72.44,72.44,0,0,1-5,19C480.69,160.19,456.88,176.11,438.7,185.23ZM168.24,181c-2.65-.52-5.27-1.15-7.84-1.87l83-60.85,68.35,13.32C286.86,151.17,226.27,192.32,168.24,181ZM92.38,134C74.62,114.89,61.61,94.43,54.14,81.34l87,17ZM107.74,34,144.13,83.6,56.59,66.53A295.49,295.49,0,0,1,107.74,34Zm58.09,53.87L121.71,27.64A168.71,168.71,0,0,1,163.63,16l61,83.25Zm-4.67,14.37,62.21,12.13-79.84,58.52c-15.05-7-28.61-16.95-40.46-28.06ZM364.69,248.67c-27,14.41-40.28,25.72-46.56,39.53-6.75,14.82-4.27,30.73-.85,52.75,2,13-13.41,37.16-33.63,45.82-7.48,3.2-12.81,2.82-15.84-1.13-6-7.75-5.8-31.23-5.67-50.09.18-26.09.33-48.63-10.43-58.21a17.68,17.68,0,0,0-14.33-4.22c-4.71.59-9.5,1.35-14.12,2.09-27.57,4.39-44.92,6.15-53.91-12.32-14.56-29.93,14.92-52.1,28.27-60.24a47.49,47.49,0,0,0,7.59-5.79c32.27-3.86,62.75-17.7,89.92-35A159.2,159.2,0,0,1,364.69,248.67Z" transform="translate(0 0.69)"/></svg>