<svg id="Laag_1" data-name="Laag 1" xmlns="http://www.w3.org/2000/svg" viewBox="0 0 160.98 47.57"><defs><style>.cls-1{font-size:17px;font-family:Arial-BoldMT, Arial;font-weight:700;letter-spacing:0.01em;}.cls-1,.cls-2{fill:#fff;}.cls-3,.cls-4{fill:#768985;}.cls-3{stroke:#768985;stroke-miterlimit:10;stroke-width:0.5px;}</style></defs><title>Naamloos-3</title><text class="cls-1" transform="translate(47.3 22.17)"><tspan xml:space="preserve">   Sustainable</tspan><tspan x="0" y="19">website</tspan></text><path class="cls-2" d="M46.75,11.39A19.36,19.36,0,0,1,45,16.72c-.13.25.67,1.39.9.94a17,17,0,0,0,1.86-5.4C47.78,12,46.85,10.94,46.75,11.39Z" transform="translate(-2.14 -4.36)"/><path class="cls-2" d="M46.93,17.22c-.33-.09-1.15.45-1.21.44a7.25,7.25,0,0,1,4.09,1.77c.29.25,1.18-.2,1.36,0A10.21,10.21,0,0,0,46.93,17.22Z" transform="translate(-2.14 -4.36)"/><path class="cls-2" d="M16.82,26.47c-.32.16-.16,1.22-.34,1.32a12.44,12.44,0,0,1,3.7-1.26c.29-.05.38-1.25.5-1.27A11.64,11.64,0,0,0,16.82,26.47Z" transform="translate(-2.14 -4.36)"/><path class="cls-2" d="M20.33,25.74l-.7-2.87c0-.29-.93-1.32-1-.89a6.65,6.65,0,0,0,.57,3.43C19.37,25.69,20.63,26.32,20.33,25.74Z" transform="translate(-2.14 -4.36)"/><path class="cls-2" d="M51.52,27.78a12.05,12.05,0,0,1-6.1,2.06A12.38,12.38,0,0,1,34.73,24c-.27-.44-3.33-5.58-1.06-10.69.33-.75,1.64-3.42,6.17-5.74C49.41,2.61,60.89,5.61,65,6.88,63.92,10.59,60.1,22.43,51.52,27.78Z" transform="translate(-2.14 -4.36)"/><path class="cls-2" d="M65.42,6.65C58.61,4.52,51.28,3.46,44.27,5.3c-4.68,1.23-10.85,4.21-11.93,9.55a13.51,13.51,0,0,0,3.22,11.62,12.75,12.75,0,0,0,9.89,4,14,14,0,0,0,5.69-2,.37.37,0,0,0,.12-.16c.09.15.17.24.22.21a31.06,31.06,0,0,0,6.28-5.75,36.5,36.5,0,0,0,4.41-7,44.27,44.27,0,0,0,3.25-9.12Zm-2,3.12c-.81,1.83-1.58,3.69-2.49,5.47a49,49,0,0,1-3,5.22,27.9,27.9,0,0,1-6.86,6.81.19.19,0,0,0-.06.1,11.3,11.3,0,0,1-2.45,1.18,5.25,5.25,0,0,1-3.2.42,7.12,7.12,0,0,1-4.71-.59L38.49,27.2a11.35,11.35,0,0,1-4.31-5.59,11,11,0,0,1-.29-7.13A9,9,0,0,1,37.35,10c6.74-5.08,16-5,23.92-3.21l1.78.45A1.73,1.73,0,0,1,63.44,9.77Z" transform="translate(-2.14 -4.36)"/><path class="cls-2" d="M20.62,16a8.62,8.62,0,0,1,3.94,2.39A8.85,8.85,0,0,1,26.28,27c-.12.35-1.52,4.4-5.36,5.51-.57.16-2.62.68-6-.72-7.1-3-10.75-10.63-12-13.45C5.5,17.17,13.74,13.79,20.62,16Z" transform="translate(-2.14 -4.36)"/><path class="cls-2" d="M25.08,18.45a9.44,9.44,0,0,0-4-2.49.57.57,0,0,0-.35.07c.1-.22.17-.4.18-.4A24.33,24.33,0,0,0,10,15.34a26.6,26.6,0,0,0-7.8,2.87l0,0c2.26,5.4,5.49,10.44,10.74,13.34,3,1.67,6.69,2.78,9.85.87a9.93,9.93,0,0,0,4.48-7.5A9.09,9.09,0,0,0,25.08,18.45Zm-.2,9.69c-1.58,2.9-4.2,4.38-7.43,3.78a15.34,15.34,0,0,1-7.52-4.07,25.07,25.07,0,0,1-3.58-4.31,30.57,30.57,0,0,1-2.22-3.92q0-2.2,2.09-2,2-.54,4.05-1a23.11,23.11,0,0,1,9.94.15s0,0,.07,0c2.7,1.19,4.77,2.81,5.4,5.91A8,8,0,0,1,24.88,28.14Z" transform="translate(-2.14 -4.36)"/><path class="cls-3" d="M46.75,10.39A19.36,19.36,0,0,1,45,15.72c-.13.25.67,1.39.9.94a17,17,0,0,0,1.86-5.4C47.78,11,46.85,9.94,46.75,10.39Z" transform="translate(-2.14 -4.36)"/><path class="cls-3" d="M46.93,16.22c-.33-.09-1.15.45-1.21.44a7.25,7.25,0,0,1,4.09,1.77c.29.25,1.18-.2,1.36,0A10.21,10.21,0,0,0,46.93,16.22Z" transform="translate(-2.14 -4.36)"/><path class="cls-3" d="M41.53,12.68a21.41,21.41,0,0,1-2.24,6.67c-.13.25.65,1.4.89,1a19.89,19.89,0,0,0,2.32-6.76C42.55,13.24,41.6,12.24,41.53,12.68Z" transform="translate(-2.14 -4.36)"/><path class="cls-3" d="M40.6,19.39c-.33-.08-1.14.52-1.18.52a8.65,8.65,0,0,1,5.12,2.22c.29.25,1.18-.2,1.36,0A12,12,0,0,0,40.6,19.39Z" transform="translate(-2.14 -4.36)"/><path class="cls-3" d="M16.82,25.47c-.32.16-.16,1.22-.34,1.32a12.44,12.44,0,0,1,3.7-1.26c.29-.05.38-1.25.5-1.27A11.64,11.64,0,0,0,16.82,25.47Z" transform="translate(-2.14 -4.36)"/><path class="cls-3" d="M20.33,24.74l-.7-2.87c0-.29-.93-1.32-1-.89a6.65,6.65,0,0,0,.57,3.43C19.37,24.69,20.63,25.32,20.33,24.74Z" transform="translate(-2.14 -4.36)"/><path class="cls-3" d="M18.69,27.26c-.28.17-.14,1.33-.31,1.43A12.59,12.59,0,0,1,22.57,27c.27-.06.34-1.36.45-1.37A11.78,11.78,0,0,0,18.69,27.26Z" transform="translate(-2.14 -4.36)"/><path class="cls-3" d="M23.1,26.25a6,6,0,0,1-.86-3.68c0-.3-.91-1.32-1-.89A7.64,7.64,0,0,0,22,25.91C22.15,26.19,23.39,26.83,23.1,26.25Z" transform="translate(-2.14 -4.36)"/><path class="cls-2" d="M36.08,26.43c.27-.49-1.36-2.06-1.11-2.48-1.35,2.28-2.6,4.6-3.9,6.91a17.2,17.2,0,0,0-1.38,2.64c-1.65,4.59-.27,10.25.57,14.8.12.65,2.18.91,2.28,1.48-.84-4.47-2.12-9.83-.9-14.39C32.5,32.19,34.49,29.28,36.08,26.43Z" transform="translate(-2.14 -4.36)"/><path class="cls-2" d="M26.48,28.09c-.46-.25-2.77.88-2.34,1.11a6.88,6.88,0,0,1,3.12,2.54,6.11,6.11,0,0,1,2.23,2.73c.31.6,2.84.11,2.71-.17A12.08,12.08,0,0,0,26.48,28.09Z" transform="translate(-2.14 -4.36)"/><path class="cls-4" d="M13.19,21.89c-.39-.09-1.77,1.15-1.51,1.21a24.65,24.65,0,0,1,11.82,5.84c.29.24,1.89-.75,1.81-.82A26,26,0,0,0,13.19,21.89Z" transform="translate(-2.14 -4.36)"/><path class="cls-4" d="M46.46,14.83a62,62,0,0,0-9.86,7.43c-.39.35.24,1.78,0,2a56,56,0,0,1,9.74-7.43,64.59,64.59,0,0,1,10-4.53c.43-.15.25-1.91.47-2A54.66,54.66,0,0,0,46.46,14.83Z" transform="translate(-2.14 -4.36)"/></svg>
