<svg id="Laag_1" data-name="Laag 1" xmlns="http://www.w3.org/2000/svg" viewBox="0 0 759.46 231.28"><defs><style>.cls-1{font-size:75.78px;fill:#d3d3d3;font-family:MyriadPro-Bold, Myriad Pro;font-weight:700;}.cls-2{letter-spacing:0.03em;}.cls-3{letter-spacing:0.02em;}.cls-4{letter-spacing:0.03em;}.cls-5,.cls-6,.cls-7{fill:none;stroke:#d3d3d3;stroke-miterlimit:10;}.cls-5{stroke-width:10px;}.cls-6{stroke-width:5px;}.cls-7{stroke-width:6px;}</style></defs><title>sustainable website logo</title><text class="cls-1" transform="translate(250.87 126.43)"> <tspan class="cls-2" x="15.31" y="0" xml:space="preserve">  Sustainable</tspan><tspan class="cls-3"><tspan x="0" y="85.88">w</tspan><tspan class="cls-2" x="58.65" y="85.88">ebsi</tspan><tspan class="cls-4" x="206.72" y="85.88">t</tspan><tspan class="cls-2" x="236.43" y="85.88">e</tspan></tspan></text><path class="cls-5" d="M180.37,253.59l-1.75-80.19c.69-1.54,1.75-3.77,3.19-6.38a124.75,124.75,0,0,1,8.67-19.52c16.44-29.83,41.23-45.53,65.68-60.62a318.42,318.42,0,0,1,50.52-25.26" transform="translate(-34.71 -24.84)"/><path class="cls-5" d="M286.43,145.89c-13.66,8.5-24,10.18-30.84,10.41-20.64.71-42.19-10.61-54-29.68-1.37-2.22-16.85-28.21-5.36-54,1.69-3.8,8.27-17.26,31.16-29,48.36-24.85,106.35-9.67,127.07-3.27C349.08,59,329.82,118.89,286.43,145.89Z" transform="translate(-34.71 -24.84)"/><path class="cls-5" d="M130.35,86.52c10.94,3.55,16.63,8.42,19.92,12.06,9.9,11,13.66,28,8.66,43.18-.58,1.78-7.65,22.22-27.06,27.84-2.86.83-13.25,3.44-30.24-3.65C65.74,151,47.3,112.27,41.24,98,54,92.33,95.58,75.25,130.35,86.52Z" transform="translate(-34.71 -24.84)"/><path class="cls-5" d="M103.6,117.55a145.42,145.42,0,0,1,75,59" transform="translate(-34.71 -24.84)"/><path class="cls-6" d="M110,136.7a46.53,46.53,0,0,1,19.15-6.38" transform="translate(-34.71 -24.84)"/><path class="cls-6" d="M124.35,112.76a25.71,25.71,0,0,0,0,6.38,26,26,0,0,0,3.19,9.58" transform="translate(-34.71 -24.84)"/><path class="cls-6" d="M119.56,146.27a58.16,58.16,0,0,1,23.94-8" transform="translate(-34.71 -24.84)"/><path class="cls-6" d="M137.52,116.35a32.14,32.14,0,0,0,0,8,32.5,32.5,0,0,0,4,12" transform="translate(-34.71 -24.84)"/><path class="cls-7" d="M266.22,59.2a66.26,66.26,0,0,1-9.16,27.25" transform="translate(-34.71 -24.84)"/><path class="cls-7" d="M279.06,95.11a36.62,36.62,0,0,0-7.26-5.47,37,37,0,0,0-13.63-4.58" transform="translate(-34.71 -24.84)"/><path class="cls-7" d="M239.83,70.78a82.83,82.83,0,0,1-11.45,34.06" transform="translate(-34.71 -24.84)"/><path class="cls-7" d="M255.41,117.79a45.77,45.77,0,0,0-9.07-6.84,46.28,46.28,0,0,0-17-5.73" transform="translate(-34.71 -24.84)"/></svg>